<svg xmlns="http://www.w3.org/2000/svg" xmlns:xlink="http://www.w3.org/1999/xlink" width="500" zoomAndPan="magnify" viewBox="0 0 375 374.999991" height="500" preserveAspectRatio="xMidYMid meet" version="1.0"><rect x="-37.5" width="450" fill="#ffffff" y="-37.499999" height="449.999989" fill-opacity="1"/><rect x="-37.5" width="450" fill="#ffffff" y="-37.499999" height="449.999989" fill-opacity="1"/><path fill="#1800ad" d="M 122.804688 128.679688 C 122.816406 127.898438 122.839844 127.117188 122.871094 126.335938 C 125.003906 73.296875 172.71875 35.128906 220.875 26.621094 C 286.945312 14.953125 374.695312 58.621094 359.328125 136.464844 C 351.097656 178.140625 321.5625 215.921875 279.738281 227.496094 C 268.207031 230.6875 255.179688 232.742188 243.191406 232.742188 C 218.125 232.742188 198.347656 219.707031 175.292969 236.359375 C 168.550781 241.226562 161.574219 258.320312 150.882812 254.554688 C 143.066406 251.800781 141.425781 235.957031 140.898438 229.347656 C 138.175781 195.4375 122.203125 162.820312 122.804688 128.679688 Z M 122.804688 128.679688 " fill-opacity="1" fill-rule="nonzero"/><path fill="#ffffff" d="M 313.925781 129.195312 C 313.925781 130.207031 313.824219 131.210938 313.628906 132.203125 C 313.429688 133.195312 313.136719 134.160156 312.75 135.097656 C 312.363281 136.03125 311.886719 136.921875 311.324219 137.761719 C 310.761719 138.605469 310.125 139.382812 309.40625 140.101562 C 308.691406 140.816406 307.914062 141.457031 307.070312 142.019531 C 306.226562 142.582031 305.339844 143.054688 304.402344 143.441406 C 303.46875 143.832031 302.503906 144.125 301.511719 144.320312 C 300.515625 144.519531 299.515625 144.617188 298.5 144.617188 C 297.488281 144.617188 296.484375 144.519531 295.492188 144.320312 C 294.5 144.125 293.535156 143.832031 292.597656 143.441406 C 291.664062 143.054688 290.773438 142.582031 289.933594 142.019531 C 289.089844 141.457031 288.3125 140.816406 287.597656 140.101562 C 286.878906 139.382812 286.242188 138.605469 285.679688 137.761719 C 285.117188 136.921875 284.640625 136.03125 284.253906 135.097656 C 283.867188 134.160156 283.574219 133.195312 283.375 132.203125 C 283.175781 131.210938 283.078125 130.207031 283.078125 129.195312 C 283.078125 128.183594 283.175781 127.179688 283.375 126.1875 C 283.574219 125.191406 283.867188 124.226562 284.253906 123.292969 C 284.640625 122.355469 285.117188 121.46875 285.679688 120.625 C 286.242188 119.785156 286.878906 119.003906 287.597656 118.289062 C 288.3125 117.574219 289.089844 116.933594 289.933594 116.371094 C 290.773438 115.808594 291.664062 115.332031 292.597656 114.945312 C 293.535156 114.558594 294.5 114.265625 295.492188 114.066406 C 296.484375 113.871094 297.488281 113.773438 298.5 113.773438 C 299.515625 113.773438 300.515625 113.871094 301.511719 114.066406 C 302.503906 114.265625 303.46875 114.558594 304.402344 114.945312 C 305.339844 115.332031 306.226562 115.808594 307.070312 116.371094 C 307.914062 116.933594 308.691406 117.574219 309.40625 118.289062 C 310.125 119.003906 310.761719 119.785156 311.324219 120.625 C 311.886719 121.46875 312.363281 122.355469 312.75 123.292969 C 313.136719 124.226562 313.429688 125.191406 313.628906 126.1875 C 313.824219 127.179688 313.925781 128.183594 313.925781 129.195312 Z M 313.925781 129.195312 " fill-opacity="1" fill-rule="nonzero"/><path fill="#ffffff" d="M 259.449219 129.195312 C 259.449219 130.207031 259.347656 131.210938 259.152344 132.203125 C 258.953125 133.195312 258.660156 134.160156 258.273438 135.097656 C 257.886719 136.03125 257.410156 136.921875 256.847656 137.765625 C 256.285156 138.605469 255.644531 139.386719 254.929688 140.101562 C 254.214844 140.816406 253.433594 141.457031 252.59375 142.019531 C 251.75 142.582031 250.863281 143.058594 249.925781 143.445312 C 248.988281 143.832031 248.027344 144.125 247.03125 144.324219 C 246.039062 144.519531 245.035156 144.617188 244.023438 144.617188 C 243.011719 144.617188 242.007812 144.519531 241.015625 144.324219 C 240.019531 144.125 239.054688 143.832031 238.121094 143.445312 C 237.183594 143.058594 236.296875 142.582031 235.453125 142.019531 C 234.613281 141.457031 233.832031 140.816406 233.117188 140.101562 C 232.402344 139.386719 231.761719 138.605469 231.199219 137.765625 C 230.636719 136.921875 230.160156 136.03125 229.773438 135.097656 C 229.386719 134.160156 229.09375 133.195312 228.894531 132.203125 C 228.699219 131.210938 228.597656 130.207031 228.597656 129.195312 C 228.597656 128.183594 228.699219 127.179688 228.894531 126.183594 C 229.09375 125.191406 229.386719 124.226562 229.773438 123.292969 C 230.160156 122.355469 230.636719 121.46875 231.199219 120.625 C 231.761719 119.78125 232.402344 119.003906 233.117188 118.289062 C 233.832031 117.570312 234.613281 116.933594 235.453125 116.371094 C 236.296875 115.808594 237.183594 115.332031 238.121094 114.945312 C 239.054688 114.558594 240.019531 114.265625 241.015625 114.066406 C 242.007812 113.867188 243.011719 113.769531 244.023438 113.769531 C 245.035156 113.769531 246.039062 113.867188 247.03125 114.066406 C 248.027344 114.265625 248.988281 114.558594 249.925781 114.945312 C 250.863281 115.332031 251.75 115.808594 252.59375 116.371094 C 253.433594 116.933594 254.214844 117.570312 254.929688 118.289062 C 255.644531 119.003906 256.285156 119.78125 256.847656 120.625 C 257.410156 121.46875 257.886719 122.355469 258.273438 123.292969 C 258.660156 124.226562 258.953125 125.191406 259.152344 126.183594 C 259.347656 127.179688 259.449219 128.183594 259.449219 129.195312 Z M 259.449219 129.195312 " fill-opacity="1" fill-rule="nonzero"/><path fill="#ffffff" d="M 207.855469 129.195312 C 207.855469 130.207031 207.753906 131.210938 207.558594 132.203125 C 207.359375 133.195312 207.066406 134.160156 206.679688 135.097656 C 206.292969 136.03125 205.816406 136.921875 205.253906 137.761719 C 204.691406 138.605469 204.054688 139.382812 203.335938 140.101562 C 202.621094 140.816406 201.839844 141.457031 201 142.019531 C 200.15625 142.582031 199.269531 143.054688 198.332031 143.441406 C 197.398438 143.832031 196.433594 144.125 195.441406 144.320312 C 194.445312 144.519531 193.445312 144.617188 192.429688 144.617188 C 191.417969 144.617188 190.414062 144.519531 189.421875 144.320312 C 188.429688 144.125 187.464844 143.832031 186.527344 143.441406 C 185.59375 143.054688 184.703125 142.582031 183.863281 142.019531 C 183.019531 141.457031 182.242188 140.816406 181.527344 140.101562 C 180.808594 139.382812 180.171875 138.605469 179.609375 137.761719 C 179.046875 136.921875 178.570312 136.03125 178.183594 135.097656 C 177.792969 134.160156 177.503906 133.195312 177.304688 132.203125 C 177.105469 131.210938 177.007812 130.207031 177.007812 129.195312 C 177.007812 128.183594 177.105469 127.179688 177.304688 126.1875 C 177.503906 125.191406 177.792969 124.226562 178.183594 123.292969 C 178.570312 122.355469 179.046875 121.46875 179.609375 120.625 C 180.171875 119.785156 180.808594 119.003906 181.527344 118.289062 C 182.242188 117.574219 183.019531 116.933594 183.863281 116.371094 C 184.703125 115.808594 185.59375 115.332031 186.527344 114.945312 C 187.464844 114.558594 188.429688 114.265625 189.421875 114.066406 C 190.414062 113.871094 191.417969 113.773438 192.429688 113.773438 C 193.445312 113.773438 194.445312 113.871094 195.441406 114.066406 C 196.433594 114.265625 197.398438 114.558594 198.332031 114.945312 C 199.269531 115.332031 200.15625 115.808594 201 116.371094 C 201.839844 116.933594 202.621094 117.574219 203.335938 118.289062 C 204.054688 119.003906 204.691406 119.785156 205.253906 120.625 C 205.816406 121.46875 206.292969 122.355469 206.679688 123.292969 C 207.066406 124.226562 207.359375 125.191406 207.558594 126.1875 C 207.753906 127.179688 207.855469 128.183594 207.855469 129.195312 Z M 207.855469 129.195312 " fill-opacity="1" fill-rule="nonzero"/><path fill="#8c52ff" d="M 252.058594 230.371094 C 252.046875 229.589844 252.023438 228.808594 251.992188 228.027344 C 249.863281 174.988281 202.144531 136.820312 153.988281 128.3125 C 87.917969 116.644531 0.167969 160.3125 15.535156 238.15625 C 23.769531 279.832031 53.300781 317.613281 95.125 329.1875 C 106.65625 332.375 119.6875 334.433594 131.671875 334.433594 C 156.738281 334.433594 176.515625 321.402344 199.570312 338.050781 C 206.3125 342.917969 213.289062 360.011719 223.980469 356.242188 C 231.796875 353.492188 233.4375 337.648438 233.964844 331.039062 C 236.6875 297.128906 252.660156 264.511719 252.058594 230.371094 Z M 252.058594 230.371094 " fill-opacity="1" fill-rule="nonzero"/><path fill="#ffffff" d="M 91.785156 230.886719 C 91.785156 231.898438 91.6875 232.902344 91.488281 233.894531 C 91.292969 234.886719 91 235.851562 90.609375 236.785156 C 90.222656 237.722656 89.75 238.613281 89.1875 239.453125 C 88.625 240.296875 87.984375 241.074219 87.269531 241.789062 C 86.550781 242.507812 85.773438 243.144531 84.929688 243.707031 C 84.089844 244.269531 83.199219 244.746094 82.265625 245.132812 C 81.328125 245.519531 80.363281 245.8125 79.371094 246.011719 C 78.378906 246.210938 77.375 246.308594 76.363281 246.308594 C 75.347656 246.308594 74.347656 246.210938 73.351562 246.011719 C 72.359375 245.8125 71.394531 245.519531 70.460938 245.132812 C 69.523438 244.746094 68.636719 244.269531 67.792969 243.707031 C 66.953125 243.144531 66.171875 242.507812 65.457031 241.789062 C 64.742188 241.074219 64.101562 240.296875 63.539062 239.453125 C 62.976562 238.613281 62.5 237.722656 62.113281 236.785156 C 61.726562 235.851562 61.433594 234.886719 61.234375 233.894531 C 61.039062 232.902344 60.9375 231.898438 60.9375 230.886719 C 60.9375 229.871094 61.039062 228.871094 61.234375 227.875 C 61.433594 226.882812 61.726562 225.917969 62.113281 224.984375 C 62.5 224.046875 62.976562 223.160156 63.539062 222.316406 C 64.101562 221.472656 64.742188 220.695312 65.457031 219.980469 C 66.171875 219.261719 66.953125 218.625 67.792969 218.0625 C 68.636719 217.5 69.523438 217.023438 70.460938 216.636719 C 71.394531 216.25 72.359375 215.957031 73.351562 215.757812 C 74.347656 215.5625 75.347656 215.460938 76.363281 215.460938 C 77.375 215.460938 78.378906 215.5625 79.371094 215.757812 C 80.363281 215.957031 81.328125 216.25 82.265625 216.636719 C 83.199219 217.023438 84.089844 217.5 84.929688 218.0625 C 85.773438 218.625 86.550781 219.261719 87.269531 219.980469 C 87.984375 220.695312 88.625 221.472656 89.1875 222.316406 C 89.75 223.160156 90.222656 224.046875 90.609375 224.984375 C 91 225.917969 91.292969 226.882812 91.488281 227.875 C 91.6875 228.871094 91.785156 229.871094 91.785156 230.886719 Z M 91.785156 230.886719 " fill-opacity="1" fill-rule="nonzero"/><path fill="#ffffff" d="M 146.265625 230.886719 C 146.265625 231.898438 146.164062 232.902344 145.96875 233.894531 C 145.769531 234.886719 145.476562 235.851562 145.089844 236.789062 C 144.703125 237.722656 144.226562 238.613281 143.664062 239.453125 C 143.101562 240.296875 142.464844 241.074219 141.746094 241.792969 C 141.03125 242.507812 140.25 243.148438 139.410156 243.710938 C 138.566406 244.273438 137.679688 244.746094 136.742188 245.136719 C 135.808594 245.523438 134.84375 245.816406 133.847656 246.011719 C 132.855469 246.210938 131.851562 246.308594 130.839844 246.308594 C 129.828125 246.308594 128.824219 246.210938 127.832031 246.011719 C 126.839844 245.816406 125.875 245.523438 124.9375 245.136719 C 124.003906 244.746094 123.113281 244.273438 122.269531 243.710938 C 121.429688 243.148438 120.648438 242.507812 119.933594 241.792969 C 119.21875 241.074219 118.578125 240.296875 118.015625 239.453125 C 117.453125 238.613281 116.976562 237.722656 116.589844 236.789062 C 116.203125 235.851562 115.910156 234.886719 115.710938 233.894531 C 115.515625 232.902344 115.417969 231.898438 115.417969 230.886719 C 115.417969 229.871094 115.515625 228.871094 115.710938 227.875 C 115.910156 226.882812 116.203125 225.917969 116.589844 224.980469 C 116.976562 224.046875 117.453125 223.15625 118.015625 222.316406 C 118.578125 221.472656 119.21875 220.695312 119.933594 219.976562 C 120.648438 219.261719 121.429688 218.621094 122.269531 218.058594 C 123.113281 217.496094 124.003906 217.023438 124.9375 216.636719 C 125.875 216.246094 126.839844 215.953125 127.832031 215.757812 C 128.824219 215.558594 129.828125 215.460938 130.839844 215.460938 C 131.851562 215.460938 132.855469 215.558594 133.847656 215.757812 C 134.84375 215.953125 135.808594 216.246094 136.742188 216.636719 C 137.679688 217.023438 138.566406 217.496094 139.410156 218.058594 C 140.25 218.621094 141.03125 219.261719 141.746094 219.976562 C 142.464844 220.695312 143.101562 221.472656 143.664062 222.316406 C 144.226562 223.15625 144.703125 224.046875 145.089844 224.980469 C 145.476562 225.917969 145.769531 226.882812 145.96875 227.875 C 146.164062 228.871094 146.265625 229.871094 146.265625 230.886719 Z M 146.265625 230.886719 " fill-opacity="1" fill-rule="nonzero"/><path fill="#ffffff" d="M 197.855469 230.886719 C 197.855469 231.898438 197.757812 232.902344 197.558594 233.894531 C 197.363281 234.886719 197.070312 235.851562 196.679688 236.785156 C 196.292969 237.722656 195.820312 238.613281 195.257812 239.453125 C 194.695312 240.296875 194.054688 241.074219 193.339844 241.789062 C 192.621094 242.507812 191.84375 243.144531 191 243.707031 C 190.160156 244.269531 189.269531 244.746094 188.335938 245.132812 C 187.398438 245.519531 186.433594 245.8125 185.441406 246.011719 C 184.449219 246.210938 183.445312 246.308594 182.433594 246.308594 C 181.417969 246.308594 180.417969 246.210938 179.421875 246.011719 C 178.429688 245.8125 177.464844 245.519531 176.53125 245.132812 C 175.59375 244.746094 174.707031 244.269531 173.863281 243.707031 C 173.023438 243.144531 172.242188 242.507812 171.527344 241.789062 C 170.8125 241.074219 170.171875 240.296875 169.609375 239.453125 C 169.046875 238.613281 168.570312 237.722656 168.183594 236.785156 C 167.796875 235.851562 167.503906 234.886719 167.304688 233.894531 C 167.109375 232.902344 167.007812 231.898438 167.007812 230.886719 C 167.007812 229.871094 167.109375 228.871094 167.304688 227.875 C 167.503906 226.882812 167.796875 225.917969 168.183594 224.984375 C 168.570312 224.046875 169.046875 223.160156 169.609375 222.316406 C 170.171875 221.472656 170.8125 220.695312 171.527344 219.980469 C 172.242188 219.261719 173.023438 218.625 173.863281 218.0625 C 174.707031 217.5 175.59375 217.023438 176.53125 216.636719 C 177.464844 216.25 178.429688 215.957031 179.421875 215.757812 C 180.417969 215.5625 181.417969 215.460938 182.433594 215.460938 C 183.445312 215.460938 184.449219 215.5625 185.441406 215.757812 C 186.433594 215.957031 187.398438 216.25 188.335938 216.636719 C 189.269531 217.023438 190.160156 217.5 191 218.0625 C 191.84375 218.625 192.621094 219.261719 193.339844 219.980469 C 194.054688 220.695312 194.695312 221.472656 195.257812 222.316406 C 195.820312 223.160156 196.292969 224.046875 196.679688 224.984375 C 197.070312 225.917969 197.363281 226.882812 197.558594 227.875 C 197.757812 228.871094 197.855469 229.871094 197.855469 230.886719 Z M 197.855469 230.886719 " fill-opacity="1" fill-rule="nonzero"/></svg>