<svg xmlns="http://www.w3.org/2000/svg" xmlns:xlink="http://www.w3.org/1999/xlink" width="500" zoomAndPan="magnify" viewBox="0 0 375 374.999991" height="500" preserveAspectRatio="xMidYMid meet" version="1.0"><defs><g/><clipPath id="00a525719e"><path d="M 0.71875 19 L 310.800781 19 L 310.800781 206 L 0.71875 206 Z M 0.71875 19 " clip-rule="nonzero"/></clipPath><clipPath id="c3e5de83a7"><rect x="0" width="311" y="0" height="187"/></clipPath><clipPath id="4412ce8334"><path d="M 78 0.199219 L 235 0.199219 L 235 80 L 78 80 Z M 78 0.199219 " clip-rule="nonzero"/></clipPath><clipPath id="bca876b49c"><rect x="0" width="157" y="0" height="80"/></clipPath><clipPath id="d759927547"><path d="M 106 173 L 210 173 L 210 215.480469 L 106 215.480469 Z M 106 173 " clip-rule="nonzero"/></clipPath><clipPath id="d614a56590"><rect x="0" width="104" y="0" height="43"/></clipPath><clipPath id="a45fd26a80"><rect x="0" width="311" y="0" height="216"/></clipPath></defs><g transform="matrix(1, 0, 0, 1, 30, 79)"><g clip-path="url(#a45fd26a80)"><g clip-path="url(#00a525719e)"><g transform="matrix(1, 0, 0, 1, -0.000000000000003553, 19)"><g clip-path="url(#c3e5de83a7)"><g fill="#8c52ff" fill-opacity="1"><g transform="translate(1.354534, 147.428619)"><g><path d="M 74.796875 -29.0625 C 74.796875 -26.5 74.472656 -24.40625 73.828125 -22.78125 C 73.191406 -21.164062 72.628906 -19.769531 72.140625 -18.59375 C 71.941406 -17.894531 71.71875 -17.128906 71.46875 -16.296875 C 71.226562 -15.460938 70.957031 -14.800781 70.65625 -14.3125 C 70.5625 -14.207031 70.390625 -13.859375 70.140625 -13.265625 C 69.898438 -12.679688 69.582031 -12.144531 69.1875 -11.65625 C 67.3125 -8.894531 64.234375 -6.332031 59.953125 -3.96875 C 55.679688 -1.613281 50.5 -0.4375 44.40625 -0.4375 L 42.625 -0.4375 C 39.382812 -0.4375 36.484375 -0.410156 33.921875 -0.359375 C 31.367188 -0.316406 28.46875 -0.296875 25.21875 -0.296875 C 24.039062 -0.296875 22.984375 -0.316406 22.046875 -0.359375 C 21.117188 -0.410156 20.015625 -0.4375 18.734375 -0.4375 C 17.359375 -0.4375 16.101562 -0.382812 14.96875 -0.28125 C 13.84375 -0.1875 12.59375 -0.140625 11.21875 -0.140625 C 9.25 -0.140625 7.84375 -0.628906 7 -1.609375 C 6.164062 -2.597656 5.695312 -3.632812 5.59375 -4.71875 C 5.5 -5.800781 5.453125 -6.539062 5.453125 -6.9375 C 5.453125 -8.707031 5.523438 -10.28125 5.671875 -11.65625 C 5.828125 -13.03125 5.90625 -14.601562 5.90625 -16.375 C 5.90625 -19.226562 5.828125 -21.734375 5.671875 -23.890625 C 5.523438 -26.054688 5.453125 -28.515625 5.453125 -31.265625 C 5.453125 -33.234375 5.425781 -35.003906 5.375 -36.578125 C 5.332031 -38.148438 5.3125 -39.875 5.3125 -41.75 C 5.3125 -43.519531 5.382812 -45.3125 5.53125 -47.125 C 5.675781 -48.945312 5.800781 -50.789062 5.90625 -52.65625 C 6 -55.90625 5.894531 -58.804688 5.59375 -61.359375 C 5.300781 -63.921875 5.207031 -66.875 5.3125 -70.21875 C 5.3125 -72.476562 5.429688 -74.539062 5.671875 -76.40625 C 5.921875 -78.28125 6.046875 -80.347656 6.046875 -82.609375 C 6.148438 -85.066406 6.050781 -87.28125 5.75 -89.25 C 5.457031 -91.21875 5.3125 -93.429688 5.3125 -95.890625 C 5.3125 -98.734375 5.703125 -100.742188 6.484375 -101.921875 C 7.273438 -103.109375 8.304688 -103.820312 9.578125 -104.0625 C 10.859375 -104.3125 12.238281 -104.4375 13.71875 -104.4375 C 14.800781 -104.4375 15.859375 -104.410156 16.890625 -104.359375 C 17.921875 -104.316406 18.929688 -104.296875 19.921875 -104.296875 C 21.585938 -104.296875 23.109375 -104.367188 24.484375 -104.515625 C 25.859375 -104.660156 27.382812 -104.6875 29.0625 -104.59375 C 30.34375 -104.59375 31.472656 -104.539062 32.453125 -104.4375 C 33.429688 -104.34375 34.5625 -104.296875 35.84375 -104.296875 L 41.296875 -104.296875 C 42.378906 -104.296875 43.363281 -104.34375 44.25 -104.4375 C 45.132812 -104.539062 46.117188 -104.59375 47.203125 -104.59375 C 48.285156 -104.59375 49.734375 -104.441406 51.546875 -104.140625 C 53.367188 -103.847656 55.191406 -103.476562 57.015625 -103.03125 C 58.835938 -102.59375 60.238281 -102.03125 61.21875 -101.34375 C 62.007812 -100.851562 62.894531 -100.085938 63.875 -99.046875 C 64.851562 -98.015625 65.34375 -97.453125 65.34375 -97.359375 C 65.9375 -96.765625 66.503906 -96.195312 67.046875 -95.65625 C 67.585938 -95.125 68.203125 -94.164062 68.890625 -92.78125 C 69.378906 -91.800781 69.742188 -90.71875 69.984375 -89.53125 C 70.234375 -88.351562 70.457031 -87.226562 70.65625 -86.15625 C 70.851562 -85.757812 71.125 -84.921875 71.46875 -83.640625 C 71.8125 -82.359375 71.984375 -80.984375 71.984375 -79.515625 C 71.984375 -78.328125 71.957031 -77.265625 71.90625 -76.328125 C 71.863281 -75.398438 71.84375 -74.347656 71.84375 -73.171875 C 71.84375 -71.203125 71.226562 -68.914062 70 -66.3125 C 68.769531 -63.707031 67.171875 -61.519531 65.203125 -59.75 C 64.710938 -59.25 64.195312 -58.800781 63.65625 -58.40625 C 63.113281 -58.019531 62.546875 -57.582031 61.953125 -57.09375 C 61.953125 -57.09375 61.804688 -56.992188 61.515625 -56.796875 C 61.222656 -56.597656 61.078125 -56.351562 61.078125 -56.0625 C 61.078125 -55.664062 61.367188 -55.34375 61.953125 -55.09375 C 62.546875 -54.851562 63.140625 -54.484375 63.734375 -53.984375 C 64.609375 -53.296875 65.585938 -52.535156 66.671875 -51.703125 C 67.753906 -50.867188 68.984375 -49.367188 70.359375 -47.203125 C 71.742188 -45.234375 72.828125 -42.820312 73.609375 -39.96875 C 74.398438 -37.125 74.796875 -33.488281 74.796875 -29.0625 Z M 45.578125 -75.96875 C 45.578125 -77.832031 44.988281 -79.695312 43.8125 -81.5625 C 42.632812 -83.4375 40.125 -84.328125 36.28125 -84.234375 C 35.40625 -84.234375 34.523438 -84.082031 33.640625 -83.78125 C 32.054688 -83.09375 31.191406 -82.035156 31.046875 -80.609375 C 30.898438 -79.191406 30.828125 -78.429688 30.828125 -78.328125 C 30.828125 -76.953125 30.875 -75.40625 30.96875 -73.6875 C 31.070312 -71.96875 31.585938 -70.492188 32.515625 -69.265625 C 33.453125 -68.035156 35.148438 -67.421875 37.609375 -67.421875 C 40.265625 -67.421875 42.253906 -68.253906 43.578125 -69.921875 C 44.910156 -71.597656 45.578125 -73.613281 45.578125 -75.96875 Z M 46.609375 -32.890625 C 46.609375 -35.546875 46.09375 -37.609375 45.0625 -39.078125 C 44.03125 -40.554688 42.800781 -41.59375 41.375 -42.1875 C 39.945312 -42.78125 38.644531 -43.078125 37.46875 -43.078125 L 36.4375 -43.078125 C 35.945312 -42.972656 35.476562 -42.867188 35.03125 -42.765625 C 34.59375 -42.671875 34.128906 -42.476562 33.640625 -42.1875 C 32.941406 -41.789062 32.445312 -41.347656 32.15625 -40.859375 C 31.863281 -40.367188 31.664062 -40.023438 31.5625 -39.828125 C 31.5625 -39.734375 31.507812 -38.945312 31.40625 -37.46875 C 31.3125 -35.988281 31.238281 -34.507812 31.1875 -33.03125 C 31.144531 -31.5625 31.125 -30.726562 31.125 -30.53125 C 31.125 -29.550781 31.195312 -28.445312 31.34375 -27.21875 C 31.488281 -25.988281 32.050781 -24.953125 33.03125 -24.109375 C 34.019531 -23.273438 35.742188 -22.859375 38.203125 -22.859375 C 40.078125 -22.859375 41.945312 -23.617188 43.8125 -25.140625 C 45.675781 -26.671875 46.609375 -29.253906 46.609375 -32.890625 Z M 46.609375 -32.890625 "/></g></g></g><g fill="#8c52ff" fill-opacity="1"><g transform="translate(70.98173, 147.428619)"><g><path d="M 73.3125 -5.90625 C 73.3125 -5.90625 73.210938 -5.410156 73.015625 -4.421875 C 72.816406 -3.441406 72.375 -2.457031 71.6875 -1.46875 C 71 -0.488281 69.921875 0 68.453125 0 C 66.679688 0 65.082031 -0.0703125 63.65625 -0.21875 C 62.226562 -0.363281 60.628906 -0.4375 58.859375 -0.4375 C 57.378906 -0.4375 56.050781 -0.382812 54.875 -0.28125 C 53.695312 -0.1875 52.367188 -0.140625 50.890625 -0.140625 C 49.117188 -0.140625 47.910156 -0.484375 47.265625 -1.171875 C 46.628906 -1.867188 46.285156 -2.660156 46.234375 -3.546875 C 46.191406 -4.429688 46.125 -5.117188 46.03125 -5.609375 C 46.03125 -6.097656 45.953125 -7.128906 45.796875 -8.703125 C 45.648438 -10.273438 45.476562 -11.875 45.28125 -13.5 C 45.09375 -15.125 44.75 -16.128906 44.25 -16.515625 C 43.863281 -16.910156 43.691406 -17.082031 43.734375 -17.03125 C 43.785156 -16.988281 43.566406 -17.113281 43.078125 -17.40625 C 42.972656 -17.5 41.8125 -17.570312 39.59375 -17.625 C 37.382812 -17.675781 35.445312 -17.703125 33.78125 -17.703125 C 31.03125 -17.703125 29.457031 -17.332031 29.0625 -16.59375 C 28.664062 -15.851562 28.320312 -14.648438 28.03125 -12.984375 C 28.03125 -12.585938 27.976562 -11.578125 27.875 -9.953125 C 27.78125 -8.328125 27.632812 -6.726562 27.4375 -5.15625 C 27.238281 -3.582031 26.992188 -2.550781 26.703125 -2.0625 C 26.210938 -1.375 25.671875 -0.878906 25.078125 -0.578125 C 24.484375 -0.285156 23.597656 -0.140625 22.421875 -0.140625 C 21.046875 -0.140625 19.789062 -0.164062 18.65625 -0.21875 C 17.53125 -0.269531 16.28125 -0.296875 14.90625 -0.296875 C 13.425781 -0.296875 11.945312 -0.269531 10.46875 -0.21875 C 9 -0.164062 7.523438 -0.140625 6.046875 -0.140625 C 4.765625 -0.140625 3.507812 -0.359375 2.28125 -0.796875 C 1.050781 -1.242188 0.4375 -2.453125 0.4375 -4.421875 C 0.4375 -5.015625 0.5625 -5.945312 0.8125 -7.21875 C 1.0625 -8.5 1.332031 -9.925781 1.625 -11.5 C 1.914062 -13.46875 2.132812 -15.1875 2.28125 -16.65625 C 2.425781 -18.132812 2.695312 -19.8125 3.09375 -21.6875 C 3.394531 -23.351562 3.691406 -24.875 3.984375 -26.25 C 4.273438 -27.632812 4.570312 -29.160156 4.875 -30.828125 C 5.363281 -33.285156 5.707031 -35.472656 5.90625 -37.390625 C 6.101562 -39.304688 6.394531 -41.492188 6.78125 -43.953125 C 7.175781 -46.410156 7.570312 -48.570312 7.96875 -50.4375 C 8.363281 -52.3125 8.707031 -54.476562 9 -56.9375 C 9.195312 -58.613281 9.367188 -60.164062 9.515625 -61.59375 C 9.660156 -63.019531 9.878906 -64.613281 10.171875 -66.375 C 10.566406 -68.34375 10.960938 -70.160156 11.359375 -71.828125 C 11.753906 -73.503906 12.144531 -75.328125 12.53125 -77.296875 C 13.125 -80.441406 13.539062 -83.242188 13.78125 -85.703125 C 14.03125 -88.160156 14.5 -90.914062 15.1875 -93.96875 C 15.6875 -95.9375 16.203125 -97.753906 16.734375 -99.421875 C 17.273438 -101.097656 17.894531 -102.28125 18.59375 -102.96875 C 19.96875 -104.050781 22.128906 -104.59375 25.078125 -104.59375 C 27.628906 -104.59375 29.914062 -104.492188 31.9375 -104.296875 C 33.957031 -104.097656 36.195312 -104 38.65625 -104 C 40.519531 -104 42.382812 -104.019531 44.25 -104.0625 C 46.125 -104.113281 47.992188 -104.140625 49.859375 -104.140625 L 50.453125 -104.140625 C 52.421875 -104.140625 53.820312 -103.941406 54.65625 -103.546875 C 55.488281 -103.160156 56.25 -102.328125 56.9375 -101.046875 C 57.132812 -100.953125 57.28125 -100.679688 57.375 -100.234375 C 57.476562 -99.796875 57.578125 -99.476562 57.671875 -99.28125 C 57.671875 -99.28125 57.796875 -98.566406 58.046875 -97.140625 C 58.296875 -95.710938 58.613281 -94.113281 59 -92.34375 C 59.394531 -90.570312 59.710938 -88.972656 59.953125 -87.546875 C 60.203125 -86.117188 60.328125 -85.40625 60.328125 -85.40625 C 60.722656 -83.050781 61.019531 -80.914062 61.21875 -79 C 61.414062 -77.082031 61.710938 -74.941406 62.109375 -72.578125 C 62.597656 -69.722656 63.0625 -67.140625 63.5 -64.828125 C 63.945312 -62.515625 64.460938 -59.9375 65.046875 -57.09375 C 65.546875 -54.832031 65.988281 -52.738281 66.375 -50.8125 C 66.769531 -48.894531 67.117188 -46.804688 67.421875 -44.546875 C 67.910156 -41.503906 68.226562 -38.773438 68.375 -36.359375 C 68.519531 -33.953125 68.789062 -31.222656 69.1875 -28.171875 C 69.675781 -25.222656 70.238281 -22.148438 70.875 -18.953125 C 71.519531 -15.753906 72.085938 -12.953125 72.578125 -10.546875 C 73.066406 -8.140625 73.3125 -6.59375 73.3125 -5.90625 Z M 41.59375 -48.09375 C 41.59375 -50.75 41.421875 -53.378906 41.078125 -55.984375 C 40.734375 -58.585938 40.390625 -60.875 40.046875 -62.84375 C 39.703125 -64.8125 39.484375 -66.140625 39.390625 -66.828125 C 39.285156 -68.003906 39.160156 -69.234375 39.015625 -70.515625 C 38.867188 -71.796875 38.695312 -72.53125 38.5 -72.71875 C 38.207031 -73.800781 37.71875 -74.34375 37.03125 -74.34375 C 36.4375 -74.34375 36.039062 -73.851562 35.84375 -72.875 C 35.75 -72.675781 35.601562 -72.109375 35.40625 -71.171875 C 35.207031 -70.242188 35.035156 -69.335938 34.890625 -68.453125 C 34.742188 -67.566406 34.617188 -66.972656 34.515625 -66.671875 C 34.316406 -65.785156 34.117188 -64.972656 33.921875 -64.234375 C 33.734375 -63.503906 33.539062 -62.695312 33.34375 -61.8125 C 33.34375 -61.507812 33.242188 -60.671875 33.046875 -59.296875 C 32.847656 -57.921875 32.625 -56.394531 32.375 -54.71875 C 32.132812 -53.050781 31.914062 -51.550781 31.71875 -50.21875 C 31.519531 -48.894531 31.421875 -48.085938 31.421875 -47.796875 C 31.421875 -45.535156 31.882812 -44.132812 32.8125 -43.59375 C 33.75 -43.050781 34.8125 -42.78125 36 -42.78125 C 36.976562 -42.78125 38.15625 -43 39.53125 -43.4375 C 40.90625 -43.882812 41.59375 -45.4375 41.59375 -48.09375 Z M 41.59375 -48.09375 "/></g></g></g><g fill="#8c52ff" fill-opacity="1"><g transform="translate(137.511102, 147.428619)"><g><path d="M 74.796875 -3.546875 C 74.796875 -1.972656 74.179688 -1.0625 72.953125 -0.8125 C 71.722656 -0.5625 71.007812 -0.4375 70.8125 -0.4375 L 70.21875 -0.4375 C 68.9375 -0.4375 67.828125 -0.484375 66.890625 -0.578125 C 65.960938 -0.679688 64.859375 -0.734375 63.578125 -0.734375 C 62.097656 -0.734375 60.789062 -0.734375 59.65625 -0.734375 C 58.53125 -0.734375 57.28125 -0.6875 55.90625 -0.59375 C 55.125 -0.59375 54.382812 -0.539062 53.6875 -0.4375 C 53 -0.34375 52.265625 -0.296875 51.484375 -0.296875 C 49.117188 -0.296875 47.617188 -1.054688 46.984375 -2.578125 C 46.347656 -4.109375 45.632812 -5.707031 44.84375 -7.375 C 44.15625 -9.144531 43.414062 -10.691406 42.625 -12.015625 C 41.84375 -13.347656 41.054688 -14.847656 40.265625 -16.515625 C 39.773438 -17.703125 39.359375 -18.757812 39.015625 -19.6875 C 38.671875 -20.625 38.203125 -21.679688 37.609375 -22.859375 C 37.023438 -24.046875 36.484375 -25.082031 35.984375 -25.96875 C 35.492188 -26.851562 34.859375 -27.296875 34.078125 -27.296875 C 32.992188 -27.296875 32.398438 -26.773438 32.296875 -25.734375 C 32.203125 -24.703125 32.15625 -23.992188 32.15625 -23.609375 C 32.15625 -22.128906 32.179688 -20.796875 32.234375 -19.609375 C 32.285156 -18.429688 32.3125 -17.15625 32.3125 -15.78125 C 32.3125 -14.695312 32.285156 -13.710938 32.234375 -12.828125 C 32.179688 -11.941406 32.15625 -10.960938 32.15625 -9.890625 C 32.15625 -8.898438 32.203125 -7.960938 32.296875 -7.078125 C 32.398438 -6.191406 32.453125 -5.207031 32.453125 -4.125 C 32.453125 -2.550781 32.054688 -1.492188 31.265625 -0.953125 C 30.484375 -0.410156 29.695312 -0.140625 28.90625 -0.140625 C 27.332031 -0.140625 25.929688 -0.210938 24.703125 -0.359375 C 23.472656 -0.515625 22.023438 -0.59375 20.359375 -0.59375 C 18.484375 -0.59375 16.785156 -0.492188 15.265625 -0.296875 C 13.742188 -0.0976562 12.046875 0 10.171875 0 C 8.597656 0 7.394531 -0.488281 6.5625 -1.46875 C 5.726562 -2.457031 5.3125 -3.6875 5.3125 -5.15625 C 5.3125 -6.238281 5.359375 -7.222656 5.453125 -8.109375 C 5.554688 -8.992188 5.65625 -9.929688 5.75 -10.921875 C 5.851562 -12.785156 5.925781 -14.476562 5.96875 -16 C 6.019531 -17.53125 6.046875 -19.226562 6.046875 -21.09375 C 5.953125 -24.832031 5.828125 -28.175781 5.671875 -31.125 C 5.523438 -34.070312 5.453125 -37.414062 5.453125 -41.15625 C 5.453125 -44.894531 5.523438 -48.3125 5.671875 -51.40625 C 5.828125 -54.507812 5.90625 -57.925781 5.90625 -61.65625 C 5.90625 -64.113281 5.851562 -66.300781 5.75 -68.21875 C 5.65625 -70.144531 5.609375 -72.335938 5.609375 -74.796875 C 5.609375 -77.347656 5.65625 -79.679688 5.75 -81.796875 C 5.851562 -83.910156 5.90625 -86.242188 5.90625 -88.796875 C 5.90625 -90.378906 5.828125 -91.785156 5.671875 -93.015625 C 5.523438 -94.242188 5.503906 -95.644531 5.609375 -97.21875 C 5.609375 -98.6875 6.070312 -100.304688 7 -102.078125 C 7.9375 -103.847656 10.078125 -104.734375 13.421875 -104.734375 C 14.992188 -104.734375 16.367188 -104.679688 17.546875 -104.578125 C 18.734375 -104.484375 20.113281 -104.4375 21.6875 -104.4375 C 25.425781 -104.34375 28.789062 -104.394531 31.78125 -104.59375 C 34.78125 -104.789062 38.148438 -104.890625 41.890625 -104.890625 C 44.742188 -104.890625 47.84375 -104.617188 51.1875 -104.078125 C 54.53125 -103.535156 57.75 -102.328125 60.84375 -100.453125 C 63.945312 -98.585938 66.628906 -95.738281 68.890625 -91.90625 C 69.484375 -90.71875 69.925781 -89.679688 70.21875 -88.796875 C 70.414062 -88.210938 70.707031 -87.523438 71.09375 -86.734375 C 71.488281 -85.953125 71.882812 -84.921875 72.28125 -83.640625 C 72.675781 -82.460938 72.972656 -80.765625 73.171875 -78.546875 C 73.367188 -76.335938 73.515625 -74.125 73.609375 -71.90625 C 73.703125 -69.695312 73.75 -68.003906 73.75 -66.828125 C 73.75 -66.140625 73.675781 -64.394531 73.53125 -61.59375 C 73.382812 -58.789062 72.769531 -55.566406 71.6875 -51.921875 C 70.601562 -48.285156 68.6875 -44.796875 65.9375 -41.453125 C 65.539062 -40.859375 65.117188 -40.335938 64.671875 -39.890625 C 64.234375 -39.453125 63.769531 -38.988281 63.28125 -38.5 C 62.882812 -38.101562 62.515625 -37.804688 62.171875 -37.609375 C 61.828125 -37.421875 61.460938 -37.078125 61.078125 -36.578125 C 60.972656 -36.484375 60.847656 -36.285156 60.703125 -35.984375 C 60.554688 -35.691406 60.484375 -35.351562 60.484375 -34.96875 C 60.484375 -34.269531 60.972656 -32.9375 61.953125 -30.96875 C 62.941406 -29.007812 63.972656 -27.046875 65.046875 -25.078125 C 66.128906 -23.109375 66.820312 -21.734375 67.125 -20.953125 C 67.613281 -19.960938 68.03125 -19.050781 68.375 -18.21875 C 68.71875 -17.382812 69.132812 -16.425781 69.625 -15.34375 C 70.414062 -13.664062 71.203125 -12.160156 71.984375 -10.828125 C 72.773438 -9.503906 73.515625 -8.007812 74.203125 -6.34375 C 74.296875 -6.050781 74.414062 -5.679688 74.5625 -5.234375 C 74.71875 -4.796875 74.796875 -4.234375 74.796875 -3.546875 Z M 45.578125 -69.625 C 45.578125 -70.90625 45.351562 -72.378906 44.90625 -74.046875 C 44.46875 -75.722656 43.679688 -77.175781 42.546875 -78.40625 C 41.421875 -79.632812 39.828125 -80.25 37.765625 -80.25 L 37.171875 -80.25 C 35.992188 -80.050781 35.0625 -79.707031 34.375 -79.21875 C 33.582031 -78.53125 33.039062 -77.816406 32.75 -77.078125 C 32.457031 -76.335938 32.3125 -75.867188 32.3125 -75.671875 C 32.3125 -75.578125 32.257812 -74.890625 32.15625 -73.609375 C 32.0625 -72.328125 31.988281 -70.875 31.9375 -69.25 C 31.882812 -67.632812 31.832031 -66.1875 31.78125 -64.90625 C 31.738281 -63.625 31.71875 -62.9375 31.71875 -62.84375 C 31.71875 -60.96875 32.257812 -59.289062 33.34375 -57.8125 C 34.425781 -56.34375 36.046875 -55.609375 38.203125 -55.609375 C 39.285156 -55.609375 40.195312 -55.753906 40.9375 -56.046875 C 41.675781 -56.347656 42.238281 -56.695312 42.625 -57.09375 C 43.90625 -58.175781 44.71875 -59.820312 45.0625 -62.03125 C 45.40625 -64.238281 45.578125 -66.769531 45.578125 -69.625 Z M 45.578125 -69.625 "/></g></g></g><g fill="#8c52ff" fill-opacity="1"><g transform="translate(207.138297, 147.428619)"><g><path d="M 74.796875 -3.546875 C 74.796875 -1.972656 74.179688 -1.0625 72.953125 -0.8125 C 71.722656 -0.5625 71.007812 -0.4375 70.8125 -0.4375 L 70.21875 -0.4375 C 68.9375 -0.4375 67.828125 -0.484375 66.890625 -0.578125 C 65.960938 -0.679688 64.859375 -0.734375 63.578125 -0.734375 C 62.097656 -0.734375 60.789062 -0.734375 59.65625 -0.734375 C 58.53125 -0.734375 57.28125 -0.6875 55.90625 -0.59375 C 55.125 -0.59375 54.382812 -0.539062 53.6875 -0.4375 C 53 -0.34375 52.265625 -0.296875 51.484375 -0.296875 C 49.117188 -0.296875 47.617188 -1.054688 46.984375 -2.578125 C 46.347656 -4.109375 45.632812 -5.707031 44.84375 -7.375 C 44.15625 -9.144531 43.414062 -10.691406 42.625 -12.015625 C 41.84375 -13.347656 41.054688 -14.847656 40.265625 -16.515625 C 39.773438 -17.703125 39.359375 -18.757812 39.015625 -19.6875 C 38.671875 -20.625 38.203125 -21.679688 37.609375 -22.859375 C 37.023438 -24.046875 36.484375 -25.082031 35.984375 -25.96875 C 35.492188 -26.851562 34.859375 -27.296875 34.078125 -27.296875 C 32.992188 -27.296875 32.398438 -26.773438 32.296875 -25.734375 C 32.203125 -24.703125 32.15625 -23.992188 32.15625 -23.609375 C 32.15625 -22.128906 32.179688 -20.796875 32.234375 -19.609375 C 32.285156 -18.429688 32.3125 -17.15625 32.3125 -15.78125 C 32.3125 -14.695312 32.285156 -13.710938 32.234375 -12.828125 C 32.179688 -11.941406 32.15625 -10.960938 32.15625 -9.890625 C 32.15625 -8.898438 32.203125 -7.960938 32.296875 -7.078125 C 32.398438 -6.191406 32.453125 -5.207031 32.453125 -4.125 C 32.453125 -2.550781 32.054688 -1.492188 31.265625 -0.953125 C 30.484375 -0.410156 29.695312 -0.140625 28.90625 -0.140625 C 27.332031 -0.140625 25.929688 -0.210938 24.703125 -0.359375 C 23.472656 -0.515625 22.023438 -0.59375 20.359375 -0.59375 C 18.484375 -0.59375 16.785156 -0.492188 15.265625 -0.296875 C 13.742188 -0.0976562 12.046875 0 10.171875 0 C 8.597656 0 7.394531 -0.488281 6.5625 -1.46875 C 5.726562 -2.457031 5.3125 -3.6875 5.3125 -5.15625 C 5.3125 -6.238281 5.359375 -7.222656 5.453125 -8.109375 C 5.554688 -8.992188 5.65625 -9.929688 5.75 -10.921875 C 5.851562 -12.785156 5.925781 -14.476562 5.96875 -16 C 6.019531 -17.53125 6.046875 -19.226562 6.046875 -21.09375 C 5.953125 -24.832031 5.828125 -28.175781 5.671875 -31.125 C 5.523438 -34.070312 5.453125 -37.414062 5.453125 -41.15625 C 5.453125 -44.894531 5.523438 -48.3125 5.671875 -51.40625 C 5.828125 -54.507812 5.90625 -57.925781 5.90625 -61.65625 C 5.90625 -64.113281 5.851562 -66.300781 5.75 -68.21875 C 5.65625 -70.144531 5.609375 -72.335938 5.609375 -74.796875 C 5.609375 -77.347656 5.65625 -79.679688 5.75 -81.796875 C 5.851562 -83.910156 5.90625 -86.242188 5.90625 -88.796875 C 5.90625 -90.378906 5.828125 -91.785156 5.671875 -93.015625 C 5.523438 -94.242188 5.503906 -95.644531 5.609375 -97.21875 C 5.609375 -98.6875 6.070312 -100.304688 7 -102.078125 C 7.9375 -103.847656 10.078125 -104.734375 13.421875 -104.734375 C 14.992188 -104.734375 16.367188 -104.679688 17.546875 -104.578125 C 18.734375 -104.484375 20.113281 -104.4375 21.6875 -104.4375 C 25.425781 -104.34375 28.789062 -104.394531 31.78125 -104.59375 C 34.78125 -104.789062 38.148438 -104.890625 41.890625 -104.890625 C 44.742188 -104.890625 47.84375 -104.617188 51.1875 -104.078125 C 54.53125 -103.535156 57.75 -102.328125 60.84375 -100.453125 C 63.945312 -98.585938 66.628906 -95.738281 68.890625 -91.90625 C 69.484375 -90.71875 69.925781 -89.679688 70.21875 -88.796875 C 70.414062 -88.210938 70.707031 -87.523438 71.09375 -86.734375 C 71.488281 -85.953125 71.882812 -84.921875 72.28125 -83.640625 C 72.675781 -82.460938 72.972656 -80.765625 73.171875 -78.546875 C 73.367188 -76.335938 73.515625 -74.125 73.609375 -71.90625 C 73.703125 -69.695312 73.75 -68.003906 73.75 -66.828125 C 73.75 -66.140625 73.675781 -64.394531 73.53125 -61.59375 C 73.382812 -58.789062 72.769531 -55.566406 71.6875 -51.921875 C 70.601562 -48.285156 68.6875 -44.796875 65.9375 -41.453125 C 65.539062 -40.859375 65.117188 -40.335938 64.671875 -39.890625 C 64.234375 -39.453125 63.769531 -38.988281 63.28125 -38.5 C 62.882812 -38.101562 62.515625 -37.804688 62.171875 -37.609375 C 61.828125 -37.421875 61.460938 -37.078125 61.078125 -36.578125 C 60.972656 -36.484375 60.847656 -36.285156 60.703125 -35.984375 C 60.554688 -35.691406 60.484375 -35.351562 60.484375 -34.96875 C 60.484375 -34.269531 60.972656 -32.9375 61.953125 -30.96875 C 62.941406 -29.007812 63.972656 -27.046875 65.046875 -25.078125 C 66.128906 -23.109375 66.820312 -21.734375 67.125 -20.953125 C 67.613281 -19.960938 68.03125 -19.050781 68.375 -18.21875 C 68.71875 -17.382812 69.132812 -16.425781 69.625 -15.34375 C 70.414062 -13.664062 71.203125 -12.160156 71.984375 -10.828125 C 72.773438 -9.503906 73.515625 -8.007812 74.203125 -6.34375 C 74.296875 -6.050781 74.414062 -5.679688 74.5625 -5.234375 C 74.71875 -4.796875 74.796875 -4.234375 74.796875 -3.546875 Z M 45.578125 -69.625 C 45.578125 -70.90625 45.351562 -72.378906 44.90625 -74.046875 C 44.46875 -75.722656 43.679688 -77.175781 42.546875 -78.40625 C 41.421875 -79.632812 39.828125 -80.25 37.765625 -80.25 L 37.171875 -80.25 C 35.992188 -80.050781 35.0625 -79.707031 34.375 -79.21875 C 33.582031 -78.53125 33.039062 -77.816406 32.75 -77.078125 C 32.457031 -76.335938 32.3125 -75.867188 32.3125 -75.671875 C 32.3125 -75.578125 32.257812 -74.890625 32.15625 -73.609375 C 32.0625 -72.328125 31.988281 -70.875 31.9375 -69.25 C 31.882812 -67.632812 31.832031 -66.1875 31.78125 -64.90625 C 31.738281 -63.625 31.71875 -62.9375 31.71875 -62.84375 C 31.71875 -60.96875 32.257812 -59.289062 33.34375 -57.8125 C 34.425781 -56.34375 36.046875 -55.609375 38.203125 -55.609375 C 39.285156 -55.609375 40.195312 -55.753906 40.9375 -56.046875 C 41.675781 -56.347656 42.238281 -56.695312 42.625 -57.09375 C 43.90625 -58.175781 44.71875 -59.820312 45.0625 -62.03125 C 45.40625 -64.238281 45.578125 -66.769531 45.578125 -69.625 Z M 45.578125 -69.625 "/></g></g></g><g fill="#8c52ff" fill-opacity="1"><g transform="translate(276.765493, 147.428619)"><g><path d="M 32.59375 -4.875 C 32.59375 -3.988281 32.367188 -3.003906 31.921875 -1.921875 C 31.484375 -0.835938 30.1875 -0.296875 28.03125 -0.296875 C 26.945312 -0.296875 25.9375 -0.34375 25 -0.4375 C 24.070312 -0.539062 23.066406 -0.59375 21.984375 -0.59375 C 20.109375 -0.59375 18.457031 -0.515625 17.03125 -0.359375 C 15.613281 -0.210938 14.019531 -0.140625 12.25 -0.140625 C 9.789062 -0.140625 8.09375 -0.457031 7.15625 -1.09375 C 6.21875 -1.738281 5.675781 -2.578125 5.53125 -3.609375 C 5.382812 -4.640625 5.3125 -5.75 5.3125 -6.9375 L 5.3125 -12.984375 C 5.3125 -14.648438 5.382812 -16.195312 5.53125 -17.625 C 5.675781 -19.050781 5.75 -20.601562 5.75 -22.28125 L 5.75 -28.328125 C 5.75 -32.054688 5.675781 -35.421875 5.53125 -38.421875 C 5.382812 -41.421875 5.3125 -44.742188 5.3125 -48.390625 L 5.3125 -66.671875 C 5.3125 -69.628906 5.382812 -72.257812 5.53125 -74.5625 C 5.675781 -76.875 5.75 -79.457031 5.75 -82.3125 L 5.75 -92.5 C 5.75 -93.769531 5.675781 -94.894531 5.53125 -95.875 C 5.382812 -96.863281 5.3125 -98 5.3125 -99.28125 C 5.3125 -101.738281 6 -103.1875 7.375 -103.625 C 8.75 -104.070312 10.273438 -104.296875 11.953125 -104.296875 C 13.617188 -104.296875 15.164062 -104.269531 16.59375 -104.21875 C 18.019531 -104.164062 19.570312 -104.140625 21.25 -104.140625 C 22.625 -104.140625 23.898438 -104.1875 25.078125 -104.28125 C 26.253906 -104.382812 27.582031 -104.4375 29.0625 -104.4375 C 30.632812 -104.4375 31.613281 -103.75 32 -102.375 C 32.394531 -101 32.59375 -99.867188 32.59375 -98.984375 C 32.59375 -97.804688 32.546875 -96.75 32.453125 -95.8125 C 32.359375 -94.875 32.257812 -93.816406 32.15625 -92.640625 C 32.0625 -90.773438 32.035156 -89.128906 32.078125 -87.703125 C 32.128906 -86.273438 32.15625 -84.625 32.15625 -82.75 L 32.15625 -59.890625 C 32.15625 -58.222656 32.101562 -56.695312 32 -55.3125 C 31.90625 -53.9375 31.859375 -52.414062 31.859375 -50.75 L 31.859375 -43.515625 C 31.859375 -40.566406 31.957031 -37.9375 32.15625 -35.625 C 32.351562 -33.3125 32.453125 -30.679688 32.453125 -27.734375 C 32.453125 -25.566406 32.378906 -23.597656 32.234375 -21.828125 C 32.085938 -20.054688 32.015625 -18.09375 32.015625 -15.9375 C 32.015625 -13.863281 32.109375 -12.015625 32.296875 -10.390625 C 32.492188 -8.773438 32.59375 -6.9375 32.59375 -4.875 Z M 32.59375 -4.875 "/></g></g></g></g></g></g><g clip-path="url(#4412ce8334)"><g transform="matrix(1, 0, 0, 1, 78, 0)"><g clip-path="url(#bca876b49c)"><g fill="#edefec" fill-opacity="1"><g transform="translate(6.157219, 64.002171)"><g><path d="M 28.46875 -10.394531 C 28.46875 -8.039062 28.054688 -5.90625 27.226562 -4.003906 C 26.355469 -2.003906 25.058594 -0.308594 23.335938 1.085938 C 20.183594 3.636719 15.742188 4.910156 10.011719 4.910156 C 8.839844 4.910156 7.636719 4.835938 6.40625 4.6875 C 5.226562 4.546875 4.101562 4.363281 3.039062 4.140625 C 2 3.921875 1.0625 3.695312 0.226562 3.460938 C -0.71875 3.195312 -1.492188 2.925781 -2.09375 2.660156 L -5.105469 1.320312 L -2.308594 -14.539062 L 7.296875 -14.539062 L 8.246094 -6.179688 L 4.058594 -5.707031 L 7.5 -8.132812 C 7.617188 -7.96875 7.769531 -7.796875 7.960938 -7.617188 C 8.140625 -7.449219 8.355469 -7.289062 8.601562 -7.140625 C 8.769531 -7.039062 8.984375 -6.953125 9.246094 -6.882812 C 9.523438 -6.804688 9.863281 -6.765625 10.253906 -6.765625 C 10.757812 -6.765625 11.171875 -6.828125 11.496094 -6.945312 C 11.757812 -7.042969 11.945312 -7.140625 12.054688 -7.246094 C 12.15625 -7.335938 12.226562 -7.4375 12.277344 -7.546875 C 12.320312 -7.652344 12.34375 -7.761719 12.34375 -7.875 L 12.34375 -7.882812 C 12.347656 -7.863281 12.351562 -7.839844 12.359375 -7.8125 C 12.382812 -7.730469 12.417969 -7.648438 12.464844 -7.570312 C 12.375 -7.71875 12.226562 -7.875 12.019531 -8.042969 C 11.628906 -8.363281 11.167969 -8.675781 10.632812 -8.980469 C 9.882812 -9.40625 9.105469 -9.859375 8.296875 -10.335938 C 7.246094 -10.925781 6.226562 -11.574219 5.242188 -12.289062 C 4.109375 -13.113281 3.105469 -14.050781 2.230469 -15.097656 C 1.28125 -16.230469 0.535156 -17.496094 -0.015625 -18.902344 C -0.597656 -20.375 -0.886719 -22.011719 -0.886719 -23.800781 C -0.886719 -26.484375 -0.355469 -28.785156 0.703125 -30.714844 C 1.769531 -32.652344 3.214844 -34.191406 5.039062 -35.324219 C 6.6875 -36.347656 8.566406 -37.058594 10.679688 -37.460938 C 12.535156 -37.8125 14.484375 -37.988281 16.519531 -37.988281 C 18.199219 -37.988281 19.921875 -37.871094 21.679688 -37.636719 C 23.375 -37.410156 25.015625 -37.121094 26.605469 -36.769531 L 30.546875 -35.894531 L 27.714844 -20.011719 L 18.132812 -20.011719 L 17.238281 -27.578125 L 21.421875 -28.070312 L 18.144531 -25.425781 C 18.019531 -25.578125 17.738281 -25.773438 17.296875 -26.003906 C 16.949219 -26.183594 16.53125 -26.277344 16.03125 -26.277344 C 15.5625 -26.277344 15.203125 -26.238281 14.953125 -26.160156 C 14.925781 -26.152344 14.90625 -26.144531 14.886719 -26.136719 L 14.894531 -26.140625 C 14.941406 -26.167969 14.988281 -26.207031 15.042969 -26.253906 C 15.066406 -26.28125 15.089844 -26.316406 15.109375 -26.363281 L 15.109375 -26.359375 C 15.101562 -26.3125 15.097656 -26.253906 15.097656 -26.183594 C 15.097656 -26.296875 15.054688 -26.425781 14.964844 -26.574219 C 15.035156 -26.457031 15.152344 -26.328125 15.320312 -26.183594 C 15.660156 -25.890625 16.066406 -25.597656 16.539062 -25.308594 C 17.15625 -24.929688 17.816406 -24.539062 18.515625 -24.148438 C 19.59375 -23.546875 20.640625 -22.914062 21.652344 -22.257812 C 22.871094 -21.464844 23.957031 -20.5625 24.910156 -19.542969 C 25.96875 -18.421875 26.8125 -17.128906 27.453125 -15.667969 C 28.128906 -14.117188 28.46875 -12.359375 28.46875 -10.394531 Z M 20.046875 -10.394531 C 20.046875 -11.1875 19.941406 -11.820312 19.730469 -12.296875 C 19.484375 -12.867188 19.164062 -13.359375 18.773438 -13.777344 C 18.28125 -14.300781 17.710938 -14.773438 17.0625 -15.195312 C 16.207031 -15.75 15.316406 -16.285156 14.386719 -16.804688 C 13.59375 -17.253906 12.839844 -17.695312 12.128906 -18.128906 C 11.269531 -18.65625 10.5 -19.21875 9.8125 -19.808594 C 8.953125 -20.554688 8.253906 -21.378906 7.714844 -22.289062 C 7.019531 -23.464844 6.675781 -24.761719 6.675781 -26.183594 C 6.675781 -27.363281 6.878906 -28.464844 7.285156 -29.484375 C 7.71875 -30.570312 8.359375 -31.519531 9.214844 -32.339844 C 10.859375 -33.914062 13.128906 -34.699219 16.03125 -34.699219 C 17.914062 -34.699219 19.636719 -34.289062 21.207031 -33.464844 C 22.679688 -32.691406 23.84375 -31.777344 24.699219 -30.71875 L 25.460938 -29.773438 L 26.058594 -24.714844 L 21.875 -24.222656 L 21.875 -28.433594 L 24.1875 -28.433594 L 24.1875 -24.222656 L 20.039062 -24.960938 L 21.546875 -33.398438 L 25.691406 -32.65625 L 24.777344 -28.546875 C 23.425781 -28.847656 22.023438 -29.09375 20.566406 -29.289062 C 19.175781 -29.472656 17.828125 -29.566406 16.519531 -29.566406 C 15.011719 -29.566406 13.585938 -29.4375 12.25 -29.183594 C 11.164062 -28.980469 10.242188 -28.640625 9.484375 -28.167969 C 8.910156 -27.8125 8.441406 -27.308594 8.082031 -26.65625 C 7.71875 -25.992188 7.535156 -25.042969 7.535156 -23.800781 C 7.535156 -23.074219 7.632812 -22.464844 7.824219 -21.980469 C 8.042969 -21.425781 8.332031 -20.933594 8.691406 -20.5 C 9.121094 -19.984375 9.621094 -19.519531 10.191406 -19.105469 C 10.910156 -18.585938 11.703125 -18.082031 12.566406 -17.597656 C 13.34375 -17.136719 14.09375 -16.703125 14.8125 -16.292969 C 15.75 -15.757812 16.59375 -15.183594 17.347656 -14.570312 C 18.285156 -13.804688 19.046875 -12.945312 19.632812 -11.996094 C 20.390625 -10.769531 20.769531 -9.394531 20.769531 -7.875 C 20.769531 -6.589844 20.511719 -5.355469 19.996094 -4.179688 C 19.484375 -3.003906 18.753906 -1.972656 17.800781 -1.085938 C 16.863281 -0.210938 15.730469 0.472656 14.402344 0.960938 C 13.140625 1.425781 11.757812 1.65625 10.253906 1.65625 C 9.109375 1.65625 8.035156 1.519531 7.03125 1.246094 C 6.011719 0.96875 5.082031 0.574219 4.242188 0.0703125 C 3.488281 -0.386719 2.800781 -0.90625 2.1875 -1.484375 C 1.585938 -2.050781 1.0625 -2.648438 0.621094 -3.277344 L -0.00390625 -4.15625 L -0.648438 -9.851562 L 3.535156 -10.324219 L 3.535156 -6.113281 L 1.226562 -6.113281 L 1.226562 -10.324219 L 5.371094 -9.59375 L 3.761719 -0.460938 L -0.386719 -1.191406 L 1.324219 -5.039062 C 1.558594 -4.933594 1.953125 -4.804688 2.503906 -4.648438 C 3.160156 -4.464844 3.914062 -4.285156 4.769531 -4.105469 C 5.59375 -3.929688 6.476562 -3.789062 7.417969 -3.671875 C 8.3125 -3.566406 9.175781 -3.511719 10.011719 -3.511719 C 12.007812 -3.511719 13.714844 -3.703125 15.132812 -4.085938 C 16.339844 -4.414062 17.308594 -4.871094 18.039062 -5.460938 C 18.691406 -5.992188 19.179688 -6.625 19.503906 -7.363281 C 19.863281 -8.195312 20.046875 -9.207031 20.046875 -10.394531 Z M 20.046875 -10.394531 "/></g></g></g><g fill="#edefec" fill-opacity="1"><g transform="translate(30.899342, 64.002171)"><g><path d="M 34.453125 -26.601562 C 34.453125 -24.300781 33.832031 -22.121094 32.585938 -20.0625 C 31.429688 -18.152344 29.792969 -16.476562 27.679688 -15.035156 C 25.730469 -13.710938 23.398438 -12.609375 20.675781 -11.738281 C 18.03125 -10.894531 15.039062 -10.339844 11.703125 -10.082031 L 11.375 -14.28125 L 15.460938 -13.257812 C 15.480469 -13.332031 15.492188 -13.390625 15.5 -13.4375 C 15.496094 -13.421875 15.492188 -13.394531 15.488281 -13.351562 C 15.476562 -13.242188 15.464844 -13.125 15.460938 -12.992188 L 15.425781 -12.304688 C 15.417969 -12.132812 15.414062 -11.996094 15.414062 -11.902344 C 15.414062 -11.113281 15.480469 -10.351562 15.621094 -9.617188 C 15.710938 -9.125 15.859375 -8.714844 16.0625 -8.378906 C 16.148438 -8.238281 16.285156 -8.113281 16.472656 -8.007812 C 16.523438 -7.980469 16.609375 -7.953125 16.726562 -7.925781 C 16.945312 -7.875 17.214844 -7.851562 17.535156 -7.851562 C 18.65625 -7.851562 19.675781 -8.058594 20.59375 -8.476562 C 21.851562 -9.042969 23.023438 -9.691406 24.109375 -10.425781 L 27.546875 -12.734375 L 33.664062 -3.976562 L 30.707031 -1.5 C 29.859375 -0.785156 28.871094 -0.0625 27.753906 0.671875 C 26.589844 1.433594 25.324219 2.121094 23.953125 2.738281 C 22.566406 3.363281 21.085938 3.875 19.519531 4.273438 C 17.847656 4.699219 16.136719 4.910156 14.386719 4.910156 C 11.707031 4.910156 9.335938 4.542969 7.28125 3.808594 C 5.078125 3.019531 3.234375 1.875 1.75 0.371094 C 0.246094 -1.148438 -0.859375 -2.976562 -1.566406 -5.117188 C -2.210938 -7.0625 -2.53125 -9.207031 -2.53125 -11.550781 C -2.53125 -13.957031 -2.265625 -16.273438 -1.734375 -18.5 C -1.203125 -20.71875 -0.449219 -22.796875 0.527344 -24.734375 C 1.5 -26.667969 2.648438 -28.429688 3.976562 -30.019531 C 5.328125 -31.636719 6.824219 -33.03125 8.457031 -34.195312 C 10.125 -35.382812 11.890625 -36.304688 13.757812 -36.964844 C 15.703125 -37.648438 17.6875 -37.988281 19.707031 -37.988281 C 21.792969 -37.988281 23.671875 -37.757812 25.34375 -37.292969 C 27.128906 -36.800781 28.675781 -36.085938 29.976562 -35.15625 C 31.425781 -34.125 32.53125 -32.871094 33.296875 -31.398438 C 34.066406 -29.914062 34.453125 -28.316406 34.453125 -26.601562 Z M 26.03125 -26.601562 C 26.03125 -26.941406 25.960938 -27.246094 25.824219 -27.511719 C 25.679688 -27.789062 25.429688 -28.050781 25.082031 -28.300781 C 24.585938 -28.65625 23.925781 -28.945312 23.097656 -29.175781 C 22.160156 -29.4375 21.027344 -29.566406 19.707031 -29.566406 C 18.644531 -29.566406 17.59375 -29.382812 16.554688 -29.015625 C 15.433594 -28.625 14.367188 -28.0625 13.347656 -27.339844 C 12.300781 -26.589844 11.332031 -25.683594 10.445312 -24.621094 C 9.53125 -23.527344 8.734375 -22.300781 8.050781 -20.945312 C 7.367188 -19.589844 6.835938 -18.121094 6.457031 -16.539062 C 6.082031 -14.960938 5.890625 -13.296875 5.890625 -11.550781 C 5.890625 -10.113281 6.070312 -8.851562 6.429688 -7.761719 C 6.726562 -6.871094 7.160156 -6.132812 7.738281 -5.550781 C 8.328125 -4.957031 9.121094 -4.480469 10.117188 -4.125 C 11.257812 -3.714844 12.679688 -3.511719 14.386719 -3.511719 C 15.433594 -3.511719 16.453125 -3.636719 17.441406 -3.890625 C 18.535156 -4.167969 19.554688 -4.519531 20.5 -4.941406 C 21.464844 -5.378906 22.34375 -5.855469 23.140625 -6.375 C 23.980469 -6.925781 24.699219 -7.453125 25.296875 -7.953125 L 28 -4.726562 L 24.550781 -2.3125 L 23.007812 -4.519531 L 26.460938 -6.929688 L 28.8125 -3.4375 C 27.332031 -2.441406 25.753906 -1.5625 24.066406 -0.800781 C 22.046875 0.113281 19.867188 0.570312 17.535156 0.570312 C 15.539062 0.570312 13.804688 0.15625 12.335938 -0.671875 C 10.867188 -1.5 9.707031 -2.613281 8.859375 -4.011719 C 8.128906 -5.21875 7.621094 -6.566406 7.34375 -8.058594 C 7.105469 -9.308594 6.988281 -10.589844 6.988281 -11.902344 C 6.988281 -12.132812 6.996094 -12.40625 7.011719 -12.722656 L 7.046875 -13.433594 C 7.0625 -13.746094 7.089844 -14.046875 7.121094 -14.335938 C 7.167969 -14.710938 7.222656 -15.035156 7.289062 -15.300781 L 8.027344 -18.246094 L 11.050781 -18.480469 C 13.734375 -18.6875 16.085938 -19.117188 18.109375 -19.761719 C 20.054688 -20.386719 21.664062 -21.128906 22.9375 -21.996094 C 24.039062 -22.75 24.855469 -23.558594 25.378906 -24.425781 C 25.8125 -25.140625 26.03125 -25.867188 26.03125 -26.601562 Z M 11.5 -21.96875 C 12.566406 -22.082031 13.480469 -22.324219 14.246094 -22.699219 C 15.023438 -23.082031 15.65625 -23.523438 16.144531 -24.027344 C 16.597656 -24.492188 16.9375 -24.996094 17.164062 -25.539062 C 17.382812 -26.0625 17.488281 -26.566406 17.488281 -27.058594 C 17.488281 -27.105469 17.488281 -27.144531 17.484375 -27.164062 C 17.488281 -27.132812 17.5 -27.09375 17.515625 -27.039062 C 17.601562 -26.785156 17.75 -26.542969 17.96875 -26.320312 C 18.117188 -26.167969 18.304688 -26.046875 18.527344 -25.949219 C 18.777344 -25.839844 19.03125 -25.785156 19.285156 -25.785156 C 19.40625 -25.785156 19.519531 -25.808594 19.625 -25.851562 C 19.648438 -25.859375 19.664062 -25.867188 19.675781 -25.875 C 19.65625 -25.863281 19.628906 -25.839844 19.59375 -25.808594 C 19.160156 -25.421875 18.734375 -24.859375 18.320312 -24.121094 C 17.820312 -23.226562 17.378906 -22.183594 16.996094 -20.996094 C 16.597656 -19.75 16.300781 -18.46875 16.101562 -17.148438 L 11.9375 -17.78125 Z M 12.375 -13.59375 L 6.957031 -13.027344 L 7.773438 -18.414062 C 8.039062 -20.175781 8.441406 -21.890625 8.972656 -23.5625 C 9.527344 -25.292969 10.195312 -26.851562 10.976562 -28.242188 C 11.84375 -29.792969 12.84375 -31.074219 13.972656 -32.085938 C 14.714844 -32.75 15.515625 -33.261719 16.367188 -33.617188 C 17.304688 -34.011719 18.277344 -34.207031 19.285156 -34.207031 C 20.195312 -34.207031 21.058594 -34.03125 21.875 -33.679688 C 22.664062 -33.335938 23.371094 -32.84375 23.996094 -32.203125 C 25.273438 -30.894531 25.914062 -29.179688 25.914062 -27.058594 C 25.914062 -25.445312 25.589844 -23.863281 24.941406 -22.308594 C 24.304688 -20.773438 23.386719 -19.390625 22.183594 -18.152344 C 21.015625 -16.953125 19.605469 -15.945312 17.957031 -15.136719 C 16.292969 -14.324219 14.433594 -13.808594 12.375 -13.59375 Z M 12.375 -13.59375 "/></g></g></g><g fill="#edefec" fill-opacity="1"><g transform="translate(59.561662, 64.002171)"><g><path d="M 22.53125 -25.375 C 22.53125 -25.472656 22.527344 -25.550781 22.519531 -25.613281 C 22.515625 -25.625 22.515625 -25.632812 22.511719 -25.640625 C 22.515625 -25.632812 22.519531 -25.621094 22.523438 -25.605469 C 22.582031 -25.414062 22.699219 -25.226562 22.875 -25.042969 C 23.074219 -24.828125 23.296875 -24.675781 23.539062 -24.589844 C 23.59375 -24.570312 23.636719 -24.558594 23.667969 -24.554688 C 23.648438 -24.558594 23.609375 -24.558594 23.554688 -24.558594 L 23.5625 -24.558594 C 23.542969 -24.558594 23.515625 -24.550781 23.484375 -24.542969 C 23.359375 -24.507812 23.210938 -24.441406 23.035156 -24.347656 C 22.445312 -24.03125 21.859375 -23.605469 21.269531 -23.074219 C 20.644531 -22.507812 20.066406 -21.863281 19.535156 -21.140625 C 19.027344 -20.445312 18.636719 -19.777344 18.367188 -19.144531 L 14.492188 -20.792969 L 18.636719 -20.050781 L 14.308594 4.210938 L -3.539062 4.210938 L 2.5 -30.441406 L 6.652344 -29.71875 L 5.511719 -25.664062 L -1.347656 -27.589844 L 0.527344 -37.113281 L 20.089844 -37.113281 L 19.609375 -26.585938 L 15.402344 -26.777344 L 12.074219 -29.359375 C 14.207031 -32.109375 16.621094 -34.21875 19.316406 -35.691406 C 22.128906 -37.222656 25.253906 -37.988281 28.703125 -37.988281 C 30.210938 -37.988281 31.628906 -37.777344 32.964844 -37.355469 C 34.4375 -36.890625 35.730469 -36.175781 36.84375 -35.21875 C 38.019531 -34.203125 38.921875 -32.949219 39.550781 -31.457031 C 40.140625 -30.046875 40.4375 -28.464844 40.4375 -26.707031 C 40.4375 -26.132812 40.402344 -25.503906 40.328125 -24.816406 C 40.261719 -24.207031 40.175781 -23.578125 40.070312 -22.929688 L 39.789062 -21.214844 C 39.691406 -20.605469 39.589844 -20.039062 39.488281 -19.511719 L 36.453125 -2.414062 L 32.308594 -3.148438 L 33.160156 -7.273438 L 41.304688 -5.589844 L 39.375 4.210938 L 17.367188 4.210938 L 21.828125 -20.660156 C 21.921875 -21.15625 22.011719 -21.664062 22.101562 -22.179688 C 22.1875 -22.671875 22.261719 -23.144531 22.328125 -23.59375 C 22.390625 -24.039062 22.445312 -24.449219 22.484375 -24.828125 C 22.515625 -25.09375 22.53125 -25.277344 22.53125 -25.375 Z M 30.953125 -25.375 C 30.953125 -24.964844 30.921875 -24.472656 30.859375 -23.898438 C 30.804688 -23.433594 30.742188 -22.933594 30.667969 -22.402344 C 30.589844 -21.867188 30.5 -21.3125 30.402344 -20.734375 C 30.304688 -20.175781 30.210938 -19.65625 30.117188 -19.171875 L 26.546875 0.742188 L 22.402344 0 L 22.402344 -4.210938 L 35.914062 -4.210938 L 35.914062 0 L 31.78125 -0.8125 L 32.234375 -3.125 L 36.367188 -2.308594 L 35.515625 1.8125 L 27.445312 0.144531 L 31.214844 -21.089844 C 31.300781 -21.542969 31.386719 -22.039062 31.476562 -22.574219 L 31.753906 -24.289062 C 31.835938 -24.785156 31.902344 -25.265625 31.953125 -25.726562 C 31.996094 -26.113281 32.015625 -26.4375 32.015625 -26.707031 C 32.015625 -27.328125 31.9375 -27.824219 31.785156 -28.1875 C 31.667969 -28.46875 31.519531 -28.683594 31.34375 -28.835938 C 31.101562 -29.042969 30.796875 -29.207031 30.425781 -29.324219 C 29.914062 -29.484375 29.339844 -29.566406 28.703125 -29.566406 C 26.6875 -29.566406 24.902344 -29.140625 23.351562 -28.292969 C 21.683594 -27.386719 20.144531 -26.019531 18.730469 -24.195312 L 10.585938 -13.695312 L 11.472656 -33.09375 L 15.679688 -32.902344 L 15.679688 -28.691406 L 3.992188 -28.691406 L 3.992188 -32.902344 L 8.121094 -32.089844 L 7.667969 -29.777344 L 3.535156 -30.59375 L 4.675781 -34.648438 L 11.453125 -32.742188 L 5.621094 0.722656 L 1.46875 0 L 1.46875 -4.210938 L 10.78125 -4.210938 L 10.78125 0 L 6.632812 -0.738281 L 10.429688 -22 L 10.613281 -22.4375 C 11.136719 -23.671875 11.847656 -24.894531 12.738281 -26.113281 C 13.609375 -27.304688 14.570312 -28.375 15.625 -29.324219 C 16.714844 -30.308594 17.851562 -31.121094 19.035156 -31.761719 C 20.546875 -32.578125 22.054688 -32.984375 23.554688 -32.984375 C 24.570312 -32.984375 25.507812 -32.832031 26.359375 -32.527344 C 27.398438 -32.160156 28.285156 -31.585938 29.015625 -30.804688 C 30.308594 -29.429688 30.953125 -27.621094 30.953125 -25.375 Z M 30.953125 -25.375 "/></g></g></g><g fill="#edefec" fill-opacity="1"><g transform="translate(96.274384, 64.002171)"><g><path d="M 28.46875 -10.394531 C 28.46875 -8.039062 28.054688 -5.90625 27.226562 -4.003906 C 26.355469 -2.003906 25.058594 -0.308594 23.335938 1.085938 C 20.183594 3.636719 15.742188 4.910156 10.011719 4.910156 C 8.839844 4.910156 7.636719 4.835938 6.40625 4.6875 C 5.226562 4.546875 4.101562 4.363281 3.039062 4.140625 C 2 3.921875 1.0625 3.695312 0.226562 3.460938 C -0.71875 3.195312 -1.492188 2.925781 -2.09375 2.660156 L -5.105469 1.320312 L -2.308594 -14.539062 L 7.296875 -14.539062 L 8.246094 -6.179688 L 4.058594 -5.707031 L 7.5 -8.132812 C 7.617188 -7.96875 7.769531 -7.796875 7.960938 -7.617188 C 8.140625 -7.449219 8.355469 -7.289062 8.601562 -7.140625 C 8.769531 -7.039062 8.984375 -6.953125 9.246094 -6.882812 C 9.523438 -6.804688 9.863281 -6.765625 10.253906 -6.765625 C 10.757812 -6.765625 11.171875 -6.828125 11.496094 -6.945312 C 11.757812 -7.042969 11.945312 -7.140625 12.054688 -7.246094 C 12.15625 -7.335938 12.226562 -7.4375 12.277344 -7.546875 C 12.320312 -7.652344 12.34375 -7.761719 12.34375 -7.875 L 12.34375 -7.882812 C 12.347656 -7.863281 12.351562 -7.839844 12.359375 -7.8125 C 12.382812 -7.730469 12.417969 -7.648438 12.464844 -7.570312 C 12.375 -7.71875 12.226562 -7.875 12.019531 -8.042969 C 11.628906 -8.363281 11.167969 -8.675781 10.632812 -8.980469 C 9.882812 -9.40625 9.105469 -9.859375 8.296875 -10.335938 C 7.246094 -10.925781 6.226562 -11.574219 5.242188 -12.289062 C 4.109375 -13.113281 3.105469 -14.050781 2.230469 -15.097656 C 1.28125 -16.230469 0.535156 -17.496094 -0.015625 -18.902344 C -0.597656 -20.375 -0.886719 -22.011719 -0.886719 -23.800781 C -0.886719 -26.484375 -0.355469 -28.785156 0.703125 -30.714844 C 1.769531 -32.652344 3.214844 -34.191406 5.039062 -35.324219 C 6.6875 -36.347656 8.566406 -37.058594 10.679688 -37.460938 C 12.535156 -37.8125 14.484375 -37.988281 16.519531 -37.988281 C 18.199219 -37.988281 19.921875 -37.871094 21.679688 -37.636719 C 23.375 -37.410156 25.015625 -37.121094 26.605469 -36.769531 L 30.546875 -35.894531 L 27.714844 -20.011719 L 18.132812 -20.011719 L 17.238281 -27.578125 L 21.421875 -28.070312 L 18.144531 -25.425781 C 18.019531 -25.578125 17.738281 -25.773438 17.296875 -26.003906 C 16.949219 -26.183594 16.53125 -26.277344 16.03125 -26.277344 C 15.5625 -26.277344 15.203125 -26.238281 14.953125 -26.160156 C 14.925781 -26.152344 14.90625 -26.144531 14.886719 -26.136719 L 14.894531 -26.140625 C 14.941406 -26.167969 14.988281 -26.207031 15.042969 -26.253906 C 15.066406 -26.28125 15.089844 -26.316406 15.109375 -26.363281 L 15.109375 -26.359375 C 15.101562 -26.3125 15.097656 -26.253906 15.097656 -26.183594 C 15.097656 -26.296875 15.054688 -26.425781 14.964844 -26.574219 C 15.035156 -26.457031 15.152344 -26.328125 15.320312 -26.183594 C 15.660156 -25.890625 16.066406 -25.597656 16.539062 -25.308594 C 17.15625 -24.929688 17.816406 -24.539062 18.515625 -24.148438 C 19.59375 -23.546875 20.640625 -22.914062 21.652344 -22.257812 C 22.871094 -21.464844 23.957031 -20.5625 24.910156 -19.542969 C 25.96875 -18.421875 26.8125 -17.128906 27.453125 -15.667969 C 28.128906 -14.117188 28.46875 -12.359375 28.46875 -10.394531 Z M 20.046875 -10.394531 C 20.046875 -11.1875 19.941406 -11.820312 19.730469 -12.296875 C 19.484375 -12.867188 19.164062 -13.359375 18.773438 -13.777344 C 18.28125 -14.300781 17.710938 -14.773438 17.0625 -15.195312 C 16.207031 -15.75 15.316406 -16.285156 14.386719 -16.804688 C 13.59375 -17.253906 12.839844 -17.695312 12.128906 -18.128906 C 11.269531 -18.65625 10.5 -19.21875 9.8125 -19.808594 C 8.953125 -20.554688 8.253906 -21.378906 7.714844 -22.289062 C 7.019531 -23.464844 6.675781 -24.761719 6.675781 -26.183594 C 6.675781 -27.363281 6.878906 -28.464844 7.285156 -29.484375 C 7.71875 -30.570312 8.359375 -31.519531 9.214844 -32.339844 C 10.859375 -33.914062 13.128906 -34.699219 16.03125 -34.699219 C 17.914062 -34.699219 19.636719 -34.289062 21.207031 -33.464844 C 22.679688 -32.691406 23.84375 -31.777344 24.699219 -30.71875 L 25.460938 -29.773438 L 26.058594 -24.714844 L 21.875 -24.222656 L 21.875 -28.433594 L 24.1875 -28.433594 L 24.1875 -24.222656 L 20.039062 -24.960938 L 21.546875 -33.398438 L 25.691406 -32.65625 L 24.777344 -28.546875 C 23.425781 -28.847656 22.023438 -29.09375 20.566406 -29.289062 C 19.175781 -29.472656 17.828125 -29.566406 16.519531 -29.566406 C 15.011719 -29.566406 13.585938 -29.4375 12.25 -29.183594 C 11.164062 -28.980469 10.242188 -28.640625 9.484375 -28.167969 C 8.910156 -27.8125 8.441406 -27.308594 8.082031 -26.65625 C 7.71875 -25.992188 7.535156 -25.042969 7.535156 -23.800781 C 7.535156 -23.074219 7.632812 -22.464844 7.824219 -21.980469 C 8.042969 -21.425781 8.332031 -20.933594 8.691406 -20.5 C 9.121094 -19.984375 9.621094 -19.519531 10.191406 -19.105469 C 10.910156 -18.585938 11.703125 -18.082031 12.566406 -17.597656 C 13.34375 -17.136719 14.09375 -16.703125 14.8125 -16.292969 C 15.75 -15.757812 16.59375 -15.183594 17.347656 -14.570312 C 18.285156 -13.804688 19.046875 -12.945312 19.632812 -11.996094 C 20.390625 -10.769531 20.769531 -9.394531 20.769531 -7.875 C 20.769531 -6.589844 20.511719 -5.355469 19.996094 -4.179688 C 19.484375 -3.003906 18.753906 -1.972656 17.800781 -1.085938 C 16.863281 -0.210938 15.730469 0.472656 14.402344 0.960938 C 13.140625 1.425781 11.757812 1.65625 10.253906 1.65625 C 9.109375 1.65625 8.035156 1.519531 7.03125 1.246094 C 6.011719 0.96875 5.082031 0.574219 4.242188 0.0703125 C 3.488281 -0.386719 2.800781 -0.90625 2.1875 -1.484375 C 1.585938 -2.050781 1.0625 -2.648438 0.621094 -3.277344 L -0.00390625 -4.15625 L -0.648438 -9.851562 L 3.535156 -10.324219 L 3.535156 -6.113281 L 1.226562 -6.113281 L 1.226562 -10.324219 L 5.371094 -9.59375 L 3.761719 -0.460938 L -0.386719 -1.191406 L 1.324219 -5.039062 C 1.558594 -4.933594 1.953125 -4.804688 2.503906 -4.648438 C 3.160156 -4.464844 3.914062 -4.285156 4.769531 -4.105469 C 5.59375 -3.929688 6.476562 -3.789062 7.417969 -3.671875 C 8.3125 -3.566406 9.175781 -3.511719 10.011719 -3.511719 C 12.007812 -3.511719 13.714844 -3.703125 15.132812 -4.085938 C 16.339844 -4.414062 17.308594 -4.871094 18.039062 -5.460938 C 18.691406 -5.992188 19.179688 -6.625 19.503906 -7.363281 C 19.863281 -8.195312 20.046875 -9.207031 20.046875 -10.394531 Z M 20.046875 -10.394531 "/></g></g></g><g fill="#edefec" fill-opacity="1"><g transform="translate(121.016507, 64.002171)"><g><path d="M 34.453125 -26.601562 C 34.453125 -24.300781 33.832031 -22.121094 32.585938 -20.0625 C 31.429688 -18.152344 29.792969 -16.476562 27.679688 -15.035156 C 25.730469 -13.710938 23.398438 -12.609375 20.675781 -11.738281 C 18.03125 -10.894531 15.039062 -10.339844 11.703125 -10.082031 L 11.375 -14.28125 L 15.460938 -13.257812 C 15.480469 -13.332031 15.492188 -13.390625 15.5 -13.4375 C 15.496094 -13.421875 15.492188 -13.394531 15.488281 -13.351562 C 15.476562 -13.242188 15.464844 -13.125 15.460938 -12.992188 L 15.425781 -12.304688 C 15.417969 -12.132812 15.414062 -11.996094 15.414062 -11.902344 C 15.414062 -11.113281 15.480469 -10.351562 15.621094 -9.617188 C 15.710938 -9.125 15.859375 -8.714844 16.0625 -8.378906 C 16.148438 -8.238281 16.285156 -8.113281 16.472656 -8.007812 C 16.523438 -7.980469 16.609375 -7.953125 16.726562 -7.925781 C 16.945312 -7.875 17.214844 -7.851562 17.535156 -7.851562 C 18.65625 -7.851562 19.675781 -8.058594 20.59375 -8.476562 C 21.851562 -9.042969 23.023438 -9.691406 24.109375 -10.425781 L 27.546875 -12.734375 L 33.664062 -3.976562 L 30.707031 -1.5 C 29.859375 -0.785156 28.871094 -0.0625 27.753906 0.671875 C 26.589844 1.433594 25.324219 2.121094 23.953125 2.738281 C 22.566406 3.363281 21.085938 3.875 19.519531 4.273438 C 17.847656 4.699219 16.136719 4.910156 14.386719 4.910156 C 11.707031 4.910156 9.335938 4.542969 7.28125 3.808594 C 5.078125 3.019531 3.234375 1.875 1.75 0.371094 C 0.246094 -1.148438 -0.859375 -2.976562 -1.566406 -5.117188 C -2.210938 -7.0625 -2.53125 -9.207031 -2.53125 -11.550781 C -2.53125 -13.957031 -2.265625 -16.273438 -1.734375 -18.5 C -1.203125 -20.71875 -0.449219 -22.796875 0.527344 -24.734375 C 1.5 -26.667969 2.648438 -28.429688 3.976562 -30.019531 C 5.328125 -31.636719 6.824219 -33.03125 8.457031 -34.195312 C 10.125 -35.382812 11.890625 -36.304688 13.757812 -36.964844 C 15.703125 -37.648438 17.6875 -37.988281 19.707031 -37.988281 C 21.792969 -37.988281 23.671875 -37.757812 25.34375 -37.292969 C 27.128906 -36.800781 28.675781 -36.085938 29.976562 -35.15625 C 31.425781 -34.125 32.53125 -32.871094 33.296875 -31.398438 C 34.066406 -29.914062 34.453125 -28.316406 34.453125 -26.601562 Z M 26.03125 -26.601562 C 26.03125 -26.941406 25.960938 -27.246094 25.824219 -27.511719 C 25.679688 -27.789062 25.429688 -28.050781 25.082031 -28.300781 C 24.585938 -28.65625 23.925781 -28.945312 23.097656 -29.175781 C 22.160156 -29.4375 21.027344 -29.566406 19.707031 -29.566406 C 18.644531 -29.566406 17.59375 -29.382812 16.554688 -29.015625 C 15.433594 -28.625 14.367188 -28.0625 13.347656 -27.339844 C 12.300781 -26.589844 11.332031 -25.683594 10.445312 -24.621094 C 9.53125 -23.527344 8.734375 -22.300781 8.050781 -20.945312 C 7.367188 -19.589844 6.835938 -18.121094 6.457031 -16.539062 C 6.082031 -14.960938 5.890625 -13.296875 5.890625 -11.550781 C 5.890625 -10.113281 6.070312 -8.851562 6.429688 -7.761719 C 6.726562 -6.871094 7.160156 -6.132812 7.738281 -5.550781 C 8.328125 -4.957031 9.121094 -4.480469 10.117188 -4.125 C 11.257812 -3.714844 12.679688 -3.511719 14.386719 -3.511719 C 15.433594 -3.511719 16.453125 -3.636719 17.441406 -3.890625 C 18.535156 -4.167969 19.554688 -4.519531 20.5 -4.941406 C 21.464844 -5.378906 22.34375 -5.855469 23.140625 -6.375 C 23.980469 -6.925781 24.699219 -7.453125 25.296875 -7.953125 L 28 -4.726562 L 24.550781 -2.3125 L 23.007812 -4.519531 L 26.460938 -6.929688 L 28.8125 -3.4375 C 27.332031 -2.441406 25.753906 -1.5625 24.066406 -0.800781 C 22.046875 0.113281 19.867188 0.570312 17.535156 0.570312 C 15.539062 0.570312 13.804688 0.15625 12.335938 -0.671875 C 10.867188 -1.5 9.707031 -2.613281 8.859375 -4.011719 C 8.128906 -5.21875 7.621094 -6.566406 7.34375 -8.058594 C 7.105469 -9.308594 6.988281 -10.589844 6.988281 -11.902344 C 6.988281 -12.132812 6.996094 -12.40625 7.011719 -12.722656 L 7.046875 -13.433594 C 7.0625 -13.746094 7.089844 -14.046875 7.121094 -14.335938 C 7.167969 -14.710938 7.222656 -15.035156 7.289062 -15.300781 L 8.027344 -18.246094 L 11.050781 -18.480469 C 13.734375 -18.6875 16.085938 -19.117188 18.109375 -19.761719 C 20.054688 -20.386719 21.664062 -21.128906 22.9375 -21.996094 C 24.039062 -22.75 24.855469 -23.558594 25.378906 -24.425781 C 25.8125 -25.140625 26.03125 -25.867188 26.03125 -26.601562 Z M 11.5 -21.96875 C 12.566406 -22.082031 13.480469 -22.324219 14.246094 -22.699219 C 15.023438 -23.082031 15.65625 -23.523438 16.144531 -24.027344 C 16.597656 -24.492188 16.9375 -24.996094 17.164062 -25.539062 C 17.382812 -26.0625 17.488281 -26.566406 17.488281 -27.058594 C 17.488281 -27.105469 17.488281 -27.144531 17.484375 -27.164062 C 17.488281 -27.132812 17.5 -27.09375 17.515625 -27.039062 C 17.601562 -26.785156 17.75 -26.542969 17.96875 -26.320312 C 18.117188 -26.167969 18.304688 -26.046875 18.527344 -25.949219 C 18.777344 -25.839844 19.03125 -25.785156 19.285156 -25.785156 C 19.40625 -25.785156 19.519531 -25.808594 19.625 -25.851562 C 19.648438 -25.859375 19.664062 -25.867188 19.675781 -25.875 C 19.65625 -25.863281 19.628906 -25.839844 19.59375 -25.808594 C 19.160156 -25.421875 18.734375 -24.859375 18.320312 -24.121094 C 17.820312 -23.226562 17.378906 -22.183594 16.996094 -20.996094 C 16.597656 -19.75 16.300781 -18.46875 16.101562 -17.148438 L 11.9375 -17.78125 Z M 12.375 -13.59375 L 6.957031 -13.027344 L 7.773438 -18.414062 C 8.039062 -20.175781 8.441406 -21.890625 8.972656 -23.5625 C 9.527344 -25.292969 10.195312 -26.851562 10.976562 -28.242188 C 11.84375 -29.792969 12.84375 -31.074219 13.972656 -32.085938 C 14.714844 -32.75 15.515625 -33.261719 16.367188 -33.617188 C 17.304688 -34.011719 18.277344 -34.207031 19.285156 -34.207031 C 20.195312 -34.207031 21.058594 -34.03125 21.875 -33.679688 C 22.664062 -33.335938 23.371094 -32.84375 23.996094 -32.203125 C 25.273438 -30.894531 25.914062 -29.179688 25.914062 -27.058594 C 25.914062 -25.445312 25.589844 -23.863281 24.941406 -22.308594 C 24.304688 -20.773438 23.386719 -19.390625 22.183594 -18.152344 C 21.015625 -16.953125 19.605469 -15.945312 17.957031 -15.136719 C 16.292969 -14.324219 14.433594 -13.808594 12.375 -13.59375 Z M 12.375 -13.59375 "/></g></g></g><g fill="#1800ad" fill-opacity="1"><g transform="translate(6.157219, 64.002171)"><g><path d="M 24.25 -10.390625 C 24.25 -6.847656 23.054688 -4.113281 20.671875 -2.1875 C 18.296875 -0.257812 14.742188 0.703125 10.015625 0.703125 C 9.003906 0.703125 7.96875 0.632812 6.90625 0.5 C 5.851562 0.375 4.851562 0.210938 3.90625 0.015625 C 2.957031 -0.179688 2.109375 -0.382812 1.359375 -0.59375 C 0.617188 -0.800781 0.0351562 -1 -0.390625 -1.1875 L 1.21875 -10.328125 L 3.53125 -10.328125 L 4.0625 -5.703125 C 4.34375 -5.304688 4.679688 -4.921875 5.078125 -4.546875 C 5.472656 -4.171875 5.921875 -3.832031 6.421875 -3.53125 C 6.921875 -3.226562 7.488281 -2.988281 8.125 -2.8125 C 8.769531 -2.644531 9.476562 -2.5625 10.25 -2.5625 C 11.257812 -2.5625 12.160156 -2.707031 12.953125 -3 C 13.742188 -3.289062 14.398438 -3.679688 14.921875 -4.171875 C 15.453125 -4.660156 15.859375 -5.222656 16.140625 -5.859375 C 16.421875 -6.503906 16.5625 -7.175781 16.5625 -7.875 C 16.5625 -8.601562 16.390625 -9.238281 16.046875 -9.78125 C 15.710938 -10.332031 15.257812 -10.835938 14.6875 -11.296875 C 14.113281 -11.765625 13.457031 -12.207031 12.71875 -12.625 C 11.988281 -13.050781 11.226562 -13.5 10.4375 -13.96875 C 9.476562 -14.5 8.570312 -15.070312 7.71875 -15.6875 C 6.863281 -16.3125 6.109375 -17.015625 5.453125 -17.796875 C 4.804688 -18.578125 4.289062 -19.457031 3.90625 -20.4375 C 3.519531 -21.414062 3.328125 -22.535156 3.328125 -23.796875 C 3.328125 -25.765625 3.679688 -27.394531 4.390625 -28.6875 C 5.097656 -29.976562 6.050781 -31 7.25 -31.75 C 8.457031 -32.5 9.859375 -33.023438 11.453125 -33.328125 C 13.054688 -33.628906 14.742188 -33.78125 16.515625 -33.78125 C 18.015625 -33.78125 19.550781 -33.675781 21.125 -33.46875 C 22.695312 -33.257812 24.21875 -32.988281 25.6875 -32.65625 L 24.1875 -24.21875 L 21.875 -24.21875 L 21.421875 -28.078125 C 20.929688 -28.679688 20.207031 -29.234375 19.25 -29.734375 C 18.289062 -30.234375 17.21875 -30.484375 16.03125 -30.484375 C 14.257812 -30.484375 12.957031 -30.085938 12.125 -29.296875 C 11.300781 -28.503906 10.890625 -27.46875 10.890625 -26.1875 C 10.890625 -25.53125 11.039062 -24.941406 11.34375 -24.421875 C 11.644531 -23.910156 12.050781 -23.429688 12.5625 -22.984375 C 13.082031 -22.546875 13.671875 -22.125 14.328125 -21.71875 C 14.992188 -21.3125 15.703125 -20.898438 16.453125 -20.484375 C 17.453125 -19.921875 18.414062 -19.332031 19.34375 -18.71875 C 20.28125 -18.113281 21.109375 -17.425781 21.828125 -16.65625 C 22.554688 -15.882812 23.140625 -14.992188 23.578125 -13.984375 C 24.023438 -12.972656 24.25 -11.773438 24.25 -10.390625 Z M 24.25 -10.390625 "/></g></g></g><g fill="#1800ad" fill-opacity="1"><g transform="translate(30.899342, 64.002171)"><g><path d="M 30.25 -26.609375 C 30.25 -25.085938 29.828125 -23.628906 28.984375 -22.234375 C 28.140625 -20.847656 26.910156 -19.609375 25.296875 -18.515625 C 23.691406 -17.421875 21.722656 -16.5 19.390625 -15.75 C 17.054688 -15 14.382812 -14.507812 11.375 -14.28125 C 11.351562 -14.1875 11.328125 -14.039062 11.296875 -13.84375 C 11.273438 -13.644531 11.257812 -13.429688 11.25 -13.203125 C 11.238281 -12.984375 11.226562 -12.75 11.21875 -12.5 C 11.207031 -12.257812 11.203125 -12.0625 11.203125 -11.90625 C 11.203125 -10.851562 11.296875 -9.828125 11.484375 -8.828125 C 11.671875 -7.835938 11.992188 -6.957031 12.453125 -6.1875 C 12.921875 -5.425781 13.566406 -4.8125 14.390625 -4.34375 C 15.222656 -3.875 16.269531 -3.640625 17.53125 -3.640625 C 19.257812 -3.640625 20.859375 -3.972656 22.328125 -4.640625 C 23.796875 -5.304688 25.175781 -6.070312 26.46875 -6.9375 L 28 -4.71875 C 27.28125 -4.113281 26.429688 -3.488281 25.453125 -2.84375 C 24.472656 -2.207031 23.398438 -1.625 22.234375 -1.09375 C 21.066406 -0.570312 19.816406 -0.144531 18.484375 0.1875 C 17.148438 0.53125 15.785156 0.703125 14.390625 0.703125 C 12.191406 0.703125 10.289062 0.414062 8.6875 -0.15625 C 7.09375 -0.726562 5.773438 -1.539062 4.734375 -2.59375 C 3.703125 -3.644531 2.9375 -4.925781 2.4375 -6.4375 C 1.9375 -7.957031 1.6875 -9.660156 1.6875 -11.546875 C 1.6875 -13.628906 1.910156 -15.617188 2.359375 -17.515625 C 2.816406 -19.421875 3.457031 -21.195312 4.28125 -22.84375 C 5.113281 -24.488281 6.085938 -25.976562 7.203125 -27.3125 C 8.328125 -28.65625 9.5625 -29.804688 10.90625 -30.765625 C 12.25 -31.722656 13.664062 -32.460938 15.15625 -32.984375 C 16.644531 -33.515625 18.160156 -33.78125 19.703125 -33.78125 C 21.410156 -33.78125 22.914062 -33.597656 24.21875 -33.234375 C 25.53125 -32.867188 26.632812 -32.363281 27.53125 -31.71875 C 28.425781 -31.082031 29.101562 -30.328125 29.5625 -29.453125 C 30.019531 -28.578125 30.25 -27.628906 30.25 -26.609375 Z M 11.9375 -17.78125 C 13.5 -17.945312 14.882812 -18.328125 16.09375 -18.921875 C 17.3125 -19.515625 18.332031 -20.238281 19.15625 -21.09375 C 19.988281 -21.945312 20.617188 -22.890625 21.046875 -23.921875 C 21.484375 -24.960938 21.703125 -26.007812 21.703125 -27.0625 C 21.703125 -28.039062 21.460938 -28.773438 20.984375 -29.265625 C 20.503906 -29.753906 19.9375 -30 19.28125 -30 C 18.394531 -30 17.5625 -29.644531 16.78125 -28.9375 C 16 -28.238281 15.285156 -27.316406 14.640625 -26.171875 C 14.003906 -25.035156 13.453125 -23.738281 12.984375 -22.28125 C 12.515625 -20.820312 12.164062 -19.320312 11.9375 -17.78125 Z M 11.9375 -17.78125 "/></g></g></g><g fill="#1800ad" fill-opacity="1"><g transform="translate(59.561662, 64.002171)"><g><path d="M 26.75 -25.375 C 26.75 -27.632812 25.6875 -28.765625 23.5625 -28.765625 C 22.769531 -28.765625 21.925781 -28.523438 21.03125 -28.046875 C 20.144531 -27.578125 19.28125 -26.960938 18.4375 -26.203125 C 17.601562 -25.441406 16.835938 -24.582031 16.140625 -23.625 C 15.441406 -22.664062 14.890625 -21.722656 14.484375 -20.796875 L 10.78125 0 L 1.46875 0 L 6.65625 -29.71875 L 3.53125 -30.59375 L 3.984375 -32.90625 L 15.6875 -32.90625 L 15.40625 -26.78125 C 17.175781 -29.0625 19.148438 -30.796875 21.328125 -31.984375 C 23.515625 -33.179688 25.972656 -33.78125 28.703125 -33.78125 C 29.773438 -33.78125 30.769531 -33.632812 31.6875 -33.34375 C 32.613281 -33.050781 33.414062 -32.613281 34.09375 -32.03125 C 34.769531 -31.445312 35.296875 -30.710938 35.671875 -29.828125 C 36.046875 -28.941406 36.234375 -27.898438 36.234375 -26.703125 C 36.234375 -26.285156 36.203125 -25.804688 36.140625 -25.265625 C 36.078125 -24.734375 36 -24.179688 35.90625 -23.609375 C 35.820312 -23.035156 35.734375 -22.460938 35.640625 -21.890625 C 35.546875 -21.316406 35.453125 -20.785156 35.359375 -20.296875 L 32.3125 -3.15625 L 36.375 -2.3125 L 35.90625 0 L 22.40625 0 L 25.96875 -19.921875 C 26.0625 -20.410156 26.15625 -20.921875 26.25 -21.453125 C 26.34375 -21.992188 26.425781 -22.507812 26.5 -23 C 26.570312 -23.488281 26.628906 -23.941406 26.671875 -24.359375 C 26.722656 -24.785156 26.75 -25.125 26.75 -25.375 Z M 26.75 -25.375 "/></g></g></g><g fill="#1800ad" fill-opacity="1"><g transform="translate(96.274384, 64.002171)"><g><path d="M 24.25 -10.390625 C 24.25 -6.847656 23.054688 -4.113281 20.671875 -2.1875 C 18.296875 -0.257812 14.742188 0.703125 10.015625 0.703125 C 9.003906 0.703125 7.96875 0.632812 6.90625 0.5 C 5.851562 0.375 4.851562 0.210938 3.90625 0.015625 C 2.957031 -0.179688 2.109375 -0.382812 1.359375 -0.59375 C 0.617188 -0.800781 0.0351562 -1 -0.390625 -1.1875 L 1.21875 -10.328125 L 3.53125 -10.328125 L 4.0625 -5.703125 C 4.34375 -5.304688 4.679688 -4.921875 5.078125 -4.546875 C 5.472656 -4.171875 5.921875 -3.832031 6.421875 -3.53125 C 6.921875 -3.226562 7.488281 -2.988281 8.125 -2.8125 C 8.769531 -2.644531 9.476562 -2.5625 10.25 -2.5625 C 11.257812 -2.5625 12.160156 -2.707031 12.953125 -3 C 13.742188 -3.289062 14.398438 -3.679688 14.921875 -4.171875 C 15.453125 -4.660156 15.859375 -5.222656 16.140625 -5.859375 C 16.421875 -6.503906 16.5625 -7.175781 16.5625 -7.875 C 16.5625 -8.601562 16.390625 -9.238281 16.046875 -9.78125 C 15.710938 -10.332031 15.257812 -10.835938 14.6875 -11.296875 C 14.113281 -11.765625 13.457031 -12.207031 12.71875 -12.625 C 11.988281 -13.050781 11.226562 -13.5 10.4375 -13.96875 C 9.476562 -14.5 8.570312 -15.070312 7.71875 -15.6875 C 6.863281 -16.3125 6.109375 -17.015625 5.453125 -17.796875 C 4.804688 -18.578125 4.289062 -19.457031 3.90625 -20.4375 C 3.519531 -21.414062 3.328125 -22.535156 3.328125 -23.796875 C 3.328125 -25.765625 3.679688 -27.394531 4.390625 -28.6875 C 5.097656 -29.976562 6.050781 -31 7.25 -31.75 C 8.457031 -32.5 9.859375 -33.023438 11.453125 -33.328125 C 13.054688 -33.628906 14.742188 -33.78125 16.515625 -33.78125 C 18.015625 -33.78125 19.550781 -33.675781 21.125 -33.46875 C 22.695312 -33.257812 24.21875 -32.988281 25.6875 -32.65625 L 24.1875 -24.21875 L 21.875 -24.21875 L 21.421875 -28.078125 C 20.929688 -28.679688 20.207031 -29.234375 19.25 -29.734375 C 18.289062 -30.234375 17.21875 -30.484375 16.03125 -30.484375 C 14.257812 -30.484375 12.957031 -30.085938 12.125 -29.296875 C 11.300781 -28.503906 10.890625 -27.46875 10.890625 -26.1875 C 10.890625 -25.53125 11.039062 -24.941406 11.34375 -24.421875 C 11.644531 -23.910156 12.050781 -23.429688 12.5625 -22.984375 C 13.082031 -22.546875 13.671875 -22.125 14.328125 -21.71875 C 14.992188 -21.3125 15.703125 -20.898438 16.453125 -20.484375 C 17.453125 -19.921875 18.414062 -19.332031 19.34375 -18.71875 C 20.28125 -18.113281 21.109375 -17.425781 21.828125 -16.65625 C 22.554688 -15.882812 23.140625 -14.992188 23.578125 -13.984375 C 24.023438 -12.972656 24.25 -11.773438 24.25 -10.390625 Z M 24.25 -10.390625 "/></g></g></g><g fill="#1800ad" fill-opacity="1"><g transform="translate(121.016507, 64.002171)"><g><path d="M 30.25 -26.609375 C 30.25 -25.085938 29.828125 -23.628906 28.984375 -22.234375 C 28.140625 -20.847656 26.910156 -19.609375 25.296875 -18.515625 C 23.691406 -17.421875 21.722656 -16.5 19.390625 -15.75 C 17.054688 -15 14.382812 -14.507812 11.375 -14.28125 C 11.351562 -14.1875 11.328125 -14.039062 11.296875 -13.84375 C 11.273438 -13.644531 11.257812 -13.429688 11.25 -13.203125 C 11.238281 -12.984375 11.226562 -12.75 11.21875 -12.5 C 11.207031 -12.257812 11.203125 -12.0625 11.203125 -11.90625 C 11.203125 -10.851562 11.296875 -9.828125 11.484375 -8.828125 C 11.671875 -7.835938 11.992188 -6.957031 12.453125 -6.1875 C 12.921875 -5.425781 13.566406 -4.8125 14.390625 -4.34375 C 15.222656 -3.875 16.269531 -3.640625 17.53125 -3.640625 C 19.257812 -3.640625 20.859375 -3.972656 22.328125 -4.640625 C 23.796875 -5.304688 25.175781 -6.070312 26.46875 -6.9375 L 28 -4.71875 C 27.28125 -4.113281 26.429688 -3.488281 25.453125 -2.84375 C 24.472656 -2.207031 23.398438 -1.625 22.234375 -1.09375 C 21.066406 -0.570312 19.816406 -0.144531 18.484375 0.1875 C 17.148438 0.53125 15.785156 0.703125 14.390625 0.703125 C 12.191406 0.703125 10.289062 0.414062 8.6875 -0.15625 C 7.09375 -0.726562 5.773438 -1.539062 4.734375 -2.59375 C 3.703125 -3.644531 2.9375 -4.925781 2.4375 -6.4375 C 1.9375 -7.957031 1.6875 -9.660156 1.6875 -11.546875 C 1.6875 -13.628906 1.910156 -15.617188 2.359375 -17.515625 C 2.816406 -19.421875 3.457031 -21.195312 4.28125 -22.84375 C 5.113281 -24.488281 6.085938 -25.976562 7.203125 -27.3125 C 8.328125 -28.65625 9.5625 -29.804688 10.90625 -30.765625 C 12.25 -31.722656 13.664062 -32.460938 15.15625 -32.984375 C 16.644531 -33.515625 18.160156 -33.78125 19.703125 -33.78125 C 21.410156 -33.78125 22.914062 -33.597656 24.21875 -33.234375 C 25.53125 -32.867188 26.632812 -32.363281 27.53125 -31.71875 C 28.425781 -31.082031 29.101562 -30.328125 29.5625 -29.453125 C 30.019531 -28.578125 30.25 -27.628906 30.25 -26.609375 Z M 11.9375 -17.78125 C 13.5 -17.945312 14.882812 -18.328125 16.09375 -18.921875 C 17.3125 -19.515625 18.332031 -20.238281 19.15625 -21.09375 C 19.988281 -21.945312 20.617188 -22.890625 21.046875 -23.921875 C 21.484375 -24.960938 21.703125 -26.007812 21.703125 -27.0625 C 21.703125 -28.039062 21.460938 -28.773438 20.984375 -29.265625 C 20.503906 -29.753906 19.9375 -30 19.28125 -30 C 18.394531 -30 17.5625 -29.644531 16.78125 -28.9375 C 16 -28.238281 15.285156 -27.316406 14.640625 -26.171875 C 14.003906 -25.035156 13.453125 -23.738281 12.984375 -22.28125 C 12.515625 -20.820312 12.164062 -19.320312 11.9375 -17.78125 Z M 11.9375 -17.78125 "/></g></g></g></g></g></g><g clip-path="url(#d759927547)"><g transform="matrix(1, 0, 0, 1, 106, 173)"><g clip-path="url(#d614a56590)"><g fill="#1800ad" fill-opacity="1"><g transform="translate(0.46907, 25.906298)"><g><path d="M 10.90625 0 L 10.90625 -3.515625 L 5.59375 -3.375 L 5.59375 -7.109375 L 9.390625 -6.828125 L 9.390625 -10.125 L 5.59375 -10.125 L 5.59375 -13.296875 L 10.421875 -13.15625 L 10.703125 -16.46875 L 0.9375 -16.46875 L 0.9375 0 Z M 10.90625 0 "/></g></g></g><g fill="#1800ad" fill-opacity="1"><g transform="translate(11.712889, 25.906298)"><g><path d="M 5.84375 0.296875 C 7.582031 0.296875 8.90625 -0.1875 9.8125 -1.15625 C 10.726562 -2.125 11.1875 -3.535156 11.1875 -5.390625 C 11.1875 -6.535156 10.863281 -7.503906 10.21875 -8.296875 C 9.582031 -9.097656 8.582031 -9.789062 7.21875 -10.375 C 7.082031 -10.457031 6.882812 -10.566406 6.625 -10.703125 C 6.363281 -10.835938 6.160156 -10.953125 6.015625 -11.046875 C 5.878906 -11.140625 5.722656 -11.25 5.546875 -11.375 C 5.378906 -11.507812 5.257812 -11.65625 5.1875 -11.8125 C 5.113281 -11.976562 5.078125 -12.160156 5.078125 -12.359375 C 5.078125 -13.109375 5.675781 -13.484375 6.875 -13.484375 C 7.375 -13.484375 7.894531 -13.375 8.4375 -13.15625 C 8.988281 -12.945312 9.445312 -12.628906 9.8125 -12.203125 L 10.515625 -14.921875 C 10.484375 -14.960938 10.4375 -15.019531 10.375 -15.09375 C 10.3125 -15.175781 10.15625 -15.316406 9.90625 -15.515625 C 9.65625 -15.722656 9.378906 -15.898438 9.078125 -16.046875 C 8.773438 -16.203125 8.359375 -16.34375 7.828125 -16.46875 C 7.304688 -16.59375 6.742188 -16.65625 6.140625 -16.65625 C 2.367188 -16.65625 0.484375 -14.984375 0.484375 -11.640625 C 0.484375 -11.023438 0.578125 -10.445312 0.765625 -9.90625 C 0.953125 -9.363281 1.164062 -8.921875 1.40625 -8.578125 C 1.644531 -8.234375 1.957031 -7.90625 2.34375 -7.59375 C 2.738281 -7.28125 3.050781 -7.054688 3.28125 -6.921875 C 3.519531 -6.785156 3.804688 -6.632812 4.140625 -6.46875 C 5.066406 -6.019531 5.71875 -5.632812 6.09375 -5.3125 C 6.476562 -4.988281 6.671875 -4.601562 6.671875 -4.15625 C 6.671875 -3.738281 6.503906 -3.445312 6.171875 -3.28125 C 5.835938 -3.125 5.296875 -3.046875 4.546875 -3.046875 C 3.804688 -3.046875 3.109375 -3.234375 2.453125 -3.609375 C 1.804688 -3.992188 1.289062 -4.445312 0.90625 -4.96875 L 0.5625 -1.546875 C 0.738281 -1.359375 0.957031 -1.171875 1.21875 -0.984375 C 1.488281 -0.796875 1.832031 -0.597656 2.25 -0.390625 C 2.675781 -0.179688 3.203125 -0.015625 3.828125 0.109375 C 4.453125 0.234375 5.125 0.296875 5.84375 0.296875 Z M 5.84375 0.296875 "/></g></g></g><g fill="#1800ad" fill-opacity="1"><g transform="translate(23.434567, 25.906298)"><g><path d="M 3.5625 0 L 8.3125 0 L 8.3125 -12.75 L 11.59375 -12.75 L 11.59375 -16.46875 L 0.265625 -16.46875 L 0.265625 -12.75 L 3.5625 -12.75 Z M 3.5625 0 "/></g></g></g><g fill="#1800ad" fill-opacity="1"><g transform="translate(35.324909, 25.906298)"><g><path d="M 2.53125 0.265625 L 3.0625 0.265625 L 5.46875 -2.046875 L 5.46875 -2.546875 L 3.0625 -4.84375 L 2.53125 -4.84375 L 0.21875 -2.546875 L 0.21875 -2.046875 Z M 2.53125 0.265625 "/></g></g></g><g fill="#1800ad" fill-opacity="1"><g transform="translate(41.073309, 25.906298)"><g/></g></g><g fill="#1800ad" fill-opacity="1"><g transform="translate(46.695219, 25.906298)"><g><path d="M 13.15625 0 L 13.15625 -3.875 L 4.71875 -3.25 C 5.019531 -3.613281 5.382812 -3.976562 5.8125 -4.34375 C 6.238281 -4.707031 6.664062 -5.03125 7.09375 -5.3125 C 7.519531 -5.601562 7.96875 -5.90625 8.4375 -6.21875 C 8.914062 -6.539062 9.363281 -6.84375 9.78125 -7.125 C 10.195312 -7.40625 10.597656 -7.722656 10.984375 -8.078125 C 11.367188 -8.429688 11.695312 -8.789062 11.96875 -9.15625 C 12.25 -9.519531 12.46875 -9.9375 12.625 -10.40625 C 12.789062 -10.882812 12.875 -11.382812 12.875 -11.90625 C 12.875 -12.625 12.765625 -13.257812 12.546875 -13.8125 C 12.335938 -14.375 12.050781 -14.832031 11.6875 -15.1875 C 11.320312 -15.550781 10.878906 -15.847656 10.359375 -16.078125 C 9.835938 -16.316406 9.296875 -16.484375 8.734375 -16.578125 C 8.171875 -16.671875 7.5625 -16.71875 6.90625 -16.71875 C 4.019531 -16.71875 2.066406 -15.941406 1.046875 -14.390625 L 1.25 -11.09375 L 3.8125 -11.078125 L 4.484375 -13.96875 C 4.898438 -14.101562 5.414062 -14.171875 6.03125 -14.171875 C 6.75 -14.171875 7.289062 -13.800781 7.65625 -13.0625 C 7.863281 -12.644531 7.96875 -12.207031 7.96875 -11.75 C 7.96875 -10.957031 7.644531 -10.144531 7 -9.3125 C 6.351562 -8.488281 5.269531 -7.457031 3.75 -6.21875 C 1.925781 -4.789062 1.015625 -3.40625 1.015625 -2.0625 C 1.015625 -0.925781 1.035156 -0.296875 1.078125 -0.171875 L 1.171875 0 Z M 13.15625 0 "/></g></g></g><g fill="#1800ad" fill-opacity="1"><g transform="translate(60.609447, 25.906298)"><g><path d="M 5.5625 -6.375 L 5.5625 -9.890625 C 5.5625 -11.566406 5.695312 -12.726562 5.96875 -13.375 C 6.25 -14.03125 6.703125 -14.359375 7.328125 -14.359375 C 8.546875 -14.359375 9.15625 -13.035156 9.15625 -10.390625 L 9.15625 -7 C 9.15625 -5.644531 9.082031 -4.613281 8.9375 -3.90625 C 8.800781 -3.195312 8.609375 -2.734375 8.359375 -2.515625 C 8.117188 -2.304688 7.773438 -2.203125 7.328125 -2.203125 C 6.710938 -2.203125 6.265625 -2.515625 5.984375 -3.140625 C 5.703125 -3.765625 5.5625 -4.84375 5.5625 -6.375 Z M 7.03125 0.296875 C 8.175781 0.296875 9.171875 0.171875 10.015625 -0.078125 C 10.859375 -0.335938 11.554688 -0.695312 12.109375 -1.15625 C 12.660156 -1.613281 13.101562 -2.203125 13.4375 -2.921875 C 13.769531 -3.640625 14 -4.421875 14.125 -5.265625 C 14.257812 -6.109375 14.328125 -7.085938 14.328125 -8.203125 C 14.328125 -9.273438 14.273438 -10.210938 14.171875 -11.015625 C 14.066406 -11.816406 13.867188 -12.59375 13.578125 -13.34375 C 13.285156 -14.09375 12.898438 -14.707031 12.421875 -15.1875 C 11.941406 -15.664062 11.300781 -16.046875 10.5 -16.328125 C 9.695312 -16.609375 8.75 -16.75 7.65625 -16.75 C 6.519531 -16.75 5.523438 -16.613281 4.671875 -16.34375 C 3.828125 -16.082031 3.128906 -15.71875 2.578125 -15.25 C 2.035156 -14.789062 1.597656 -14.195312 1.265625 -13.46875 C 0.941406 -12.75 0.710938 -11.96875 0.578125 -11.125 C 0.453125 -10.28125 0.390625 -9.300781 0.390625 -8.1875 C 0.390625 -7.113281 0.441406 -6.171875 0.546875 -5.359375 C 0.648438 -4.554688 0.84375 -3.785156 1.125 -3.046875 C 1.414062 -2.304688 1.800781 -1.703125 2.28125 -1.234375 C 2.769531 -0.765625 3.410156 -0.390625 4.203125 -0.109375 C 4.992188 0.160156 5.9375 0.296875 7.03125 0.296875 Z M 7.03125 0.296875 "/></g></g></g><g fill="#1800ad" fill-opacity="1"><g transform="translate(75.324796, 25.906298)"><g><path d="M 13.15625 0 L 13.15625 -3.875 L 4.71875 -3.25 C 5.019531 -3.613281 5.382812 -3.976562 5.8125 -4.34375 C 6.238281 -4.707031 6.664062 -5.03125 7.09375 -5.3125 C 7.519531 -5.601562 7.96875 -5.90625 8.4375 -6.21875 C 8.914062 -6.539062 9.363281 -6.84375 9.78125 -7.125 C 10.195312 -7.40625 10.597656 -7.722656 10.984375 -8.078125 C 11.367188 -8.429688 11.695312 -8.789062 11.96875 -9.15625 C 12.25 -9.519531 12.46875 -9.9375 12.625 -10.40625 C 12.789062 -10.882812 12.875 -11.382812 12.875 -11.90625 C 12.875 -12.625 12.765625 -13.257812 12.546875 -13.8125 C 12.335938 -14.375 12.050781 -14.832031 11.6875 -15.1875 C 11.320312 -15.550781 10.878906 -15.847656 10.359375 -16.078125 C 9.835938 -16.316406 9.296875 -16.484375 8.734375 -16.578125 C 8.171875 -16.671875 7.5625 -16.71875 6.90625 -16.71875 C 4.019531 -16.71875 2.066406 -15.941406 1.046875 -14.390625 L 1.25 -11.09375 L 3.8125 -11.078125 L 4.484375 -13.96875 C 4.898438 -14.101562 5.414062 -14.171875 6.03125 -14.171875 C 6.75 -14.171875 7.289062 -13.800781 7.65625 -13.0625 C 7.863281 -12.644531 7.96875 -12.207031 7.96875 -11.75 C 7.96875 -10.957031 7.644531 -10.144531 7 -9.3125 C 6.351562 -8.488281 5.269531 -7.457031 3.75 -6.21875 C 1.925781 -4.789062 1.015625 -3.40625 1.015625 -2.0625 C 1.015625 -0.925781 1.035156 -0.296875 1.078125 -0.171875 L 1.171875 0 Z M 13.15625 0 "/></g></g></g><g fill="#1800ad" fill-opacity="1"><g transform="translate(89.239025, 25.906298)"><g><path d="M 5.171875 0.28125 C 7.523438 0.28125 9.28125 -0.238281 10.4375 -1.28125 C 11.59375 -2.320312 12.171875 -3.769531 12.171875 -5.625 C 12.171875 -6.507812 12.023438 -7.28125 11.734375 -7.9375 C 11.453125 -8.601562 11.0625 -9.125 10.5625 -9.5 C 10.070312 -9.882812 9.53125 -10.164062 8.9375 -10.34375 C 8.34375 -10.53125 7.691406 -10.625 6.984375 -10.625 C 6.566406 -10.625 6.109375 -10.566406 5.609375 -10.453125 C 5.109375 -10.347656 4.734375 -10.21875 4.484375 -10.0625 L 5.078125 -13 L 10.9375 -13 L 11.90625 -16.46875 L 2.03125 -16.46875 L 1.09375 -7.078125 C 2.375 -7.597656 3.535156 -7.859375 4.578125 -7.859375 C 5.597656 -7.859375 6.34375 -7.640625 6.8125 -7.203125 C 7.289062 -6.773438 7.53125 -6.191406 7.53125 -5.453125 C 7.53125 -4.472656 7.226562 -3.769531 6.625 -3.34375 C 6.019531 -2.925781 5.09375 -2.71875 3.84375 -2.71875 C 3.414062 -2.71875 2.882812 -2.804688 2.25 -2.984375 C 1.613281 -3.171875 1.148438 -3.378906 0.859375 -3.609375 L 0.859375 -1.046875 C 2.265625 -0.160156 3.703125 0.28125 5.171875 0.28125 Z M 5.171875 0.28125 "/></g></g></g></g></g></g></g></g></svg>